<?xml version="1.0" encoding="UTF-8"?>
<svg id="Layer_1" data-name="Layer 1" xmlns="http://www.w3.org/2000/svg" version="1.1" viewBox="0 0 320 166">
  <defs>
    <style>
      .cls-1 {
        fill: #fff;
        fill-opacity: 0;
      }

      .cls-1, .cls-2, .cls-3 {
        stroke-width: 0px;
      }

      .cls-2 {
        fill: #d9261c;
        fill-rule: evenodd;
      }

      .cls-3 {
        fill: #003b70;
      }
    </style>
  </defs>
  <g id="Citi_Bank" data-name="Citi Bank">
    <rect id="Rectangle_466" data-name="Rectangle 466" class="cls-1" width="320" height="166"/>
    <g id="layer1">
      <g id="g4940">
        <path id="path1274" class="cls-3" d="M131.7,107.1l-.2.2c-3.5,3.6-7.5,5.4-11.7,5.4-8.7,0-15-6.5-15-15.5s6.3-15.5,15-15.5,8.2,1.9,11.7,5.5l.2.2,5.6-6.8-.2-.2c-4.7-5.5-10.2-8.2-17.1-8.2-6.5-.1-12.8,2.2-17.7,6.5-4.9,4.5-7.5,10.9-7.5,18.5s2.6,13.9,7.5,18.5c4.9,4.3,11.2,6.6,17.7,6.5,6.9,0,12.4-2.7,17.1-8.2l.2-.2-5.6-6.8Z"/>
        <path id="path1276" class="cls-3" d="M142.9,121.2h9.9v-48.2h-9.9v48.2Z"/>
        <path id="path1278" class="cls-3" d="M191.5,110.8c-2.2,1.5-4.7,2.3-7.3,2.4-3.2,0-4.6-1.7-4.6-5.4v-25.6h10.1v-9.1h-10.1v-15l-9.7,5.2v9.8h-8.4v9.1h8.4v27.2c0,7.4,4.4,12.5,11,12.6,3.1.1,6.1-.6,8.8-2.2h0c0,0,2.4-9.4,2.4-9.4l-.6.4h0Z"/>
        <path id="path1280" class="cls-3" d="M199.7,121.2h9.9v-48.2h-9.9v48.2Z"/>
        <path id="path1284" class="cls-2" d="M215.5,64.5c-9.1-12.7-23.7-20.4-39.3-20.5-15.6.1-30.3,7.7-39.3,20.5l-.5.7h11.5c7.4-7.9,17.6-12.3,28.3-12.4,10.7,0,20.9,4.5,28.3,12.2h.1c0,.1,11.4.1,11.4.1l-.5-.7Z"/>
      </g>
    </g>
  </g>
</svg>