<svg xmlns="http://www.w3.org/2000/svg" width="320.001" height="166" viewBox="0 0 320.001 166">
  <g id="IOCL" transform="translate(5935 1820)">
    <rect id="Rectangle_464" data-name="Rectangle 464" width="320.001" height="166" transform="translate(-5935 -1820)" fill="#fff" opacity="0"/>
    <g id="Indian_Oil_Logo" transform="translate(-5836 -1810)">
      <g id="Group_97154" data-name="Group 97154" transform="translate(2.546 2.628)">
        <path id="Path_85851" data-name="Path 85851" d="M61.766,5.02a61.158,61.158,0,0,1,11.665.555,58.624,58.624,0,0,1,42.627,29.082,57.785,57.785,0,0,1-1.919,60.25A58.629,58.629,0,0,1,7.754,75.18a57.1,57.1,0,0,1-.7-20.416,59.99,59.99,0,0,1,3.794-13.579A58.756,58.756,0,0,1,40.934,10.152,66.773,66.773,0,0,1,50.121,6.86,67.044,67.044,0,0,1,61.766,5.02M59.331,7.553a55.28,55.28,0,0,0-6.494,1.072,44.216,44.216,0,0,0-5.927,1.684,53.256,53.256,0,0,0-11.868,5.726A56.251,56.251,0,0,0,10.9,48.623,47.827,47.827,0,0,0,9.4,56.177a56.4,56.4,0,0,0,32.562,58.186,57.268,57.268,0,0,0,26.571,4.962c1.22-.255,2.474-.145,3.694-.375a55.648,55.648,0,0,0,18.043-5.441,56.494,56.494,0,0,0,28.456-32.7c.506-1.59,1.163-3.134,1.558-4.759a47.809,47.809,0,0,0,1.095-7.387,41.581,41.581,0,0,1,.2-4.388c.128-1.885-.253-3.757-.209-5.647A56.375,56.375,0,0,0,59.331,7.553Z" transform="translate(-6.462 -4.973)" fill="#fefefe"/>
        <path id="Path_85852" data-name="Path 85852" d="M29.555,81.323c1.416-.569,3.026,1.45,1.875,2.6a1.73,1.73,0,0,1-2.916-.358C27.943,82.683,28.795,81.726,29.555,81.323Z" transform="translate(-14.969 -34.64)" fill="#fefefe"/>
        <path id="Path_85853" data-name="Path 85853" d="M32.827,82.409a7.8,7.8,0,0,1,6.862.074,5.4,5.4,0,0,1,3.2,3.559c8.933.088,17.871.037,26.8.061-.02.668-.02,1.338,0,2.005-.434.025-.869.042-1.3.064.069,4.275-.1,8.543-.118,12.816-1.026.052-2.052.037-3.078.015.069-2.26.056-4.521.083-6.778-1.031.01-2.062-.027-3.09,0-.614.665-1.082,1.539-2.012,1.814-1.374.6-2.788-.827-2.766-2.177a2.022,2.022,0,0,1,2.074-2.125,51.814,51.814,0,0,0,6.018-.115c-.017-1.153.02-2.309.088-3.46-3.144.032-6.29-.012-9.434.049-.01,4.3-.233,8.6-.137,12.909-1.038-.039-2.074-.034-3.112,0-.022-1.146,0-2.292.025-3.438a5.4,5.4,0,0,1-4.977.125,7.2,7.2,0,0,1-3.375-4.712c1.171-.361,2.469-1.117,2.7-2.432a2.149,2.149,0,0,0-.736-1.988c-.827-.942-2.2-.39-3.286-.53a26.516,26.516,0,0,1,0,4.118c-1.293-.061-2.587.022-3.88.027a4.145,4.145,0,0,0-2.319.348c.034.309.076.618.118.928,2.081.535,4.364.326,6.3,1.372a2.293,2.293,0,0,1,1.166,1.139,4.508,4.508,0,0,1-2.663,4.594,8.018,8.018,0,0,1-7.669-1.183c.461-.6.991-1.149,1.47-1.738,1.669.645,3.664,1.333,5.333.317.582-.211.329-.893.329-1.352-1.909-.594-4.074-.447-5.826-1.541-.913-.579-1.767-1.652-1.347-2.785A2.729,2.729,0,0,1,36.033,90c1.158-.618,2.506-.412,3.765-.422.01-.471.017-.945.029-1.414-2.452-.032-4.9,0-7.353-.017.042,4.312-.02,8.624.01,12.934-.925.022-1.85.012-2.773.056-.1-4.292-.054-8.59-.074-12.884a10.8,10.8,0,0,0-2.454-.135c-.01,1.3.081,2.606-.054,3.9a36.01,36.01,0,0,0-6.766.272c-.039.449-.243,1.21.4,1.308,1.855.206,3.887-.432,5.618.491,1.32.7,1.5,2.371,1.485,3.711a4.048,4.048,0,0,1-1.124,2.56c-.778.9-2.346.528-2.967,1.6.086.606.663.942,1.092,1.306-.574.631-1.063,1.33-1.654,1.946a8.6,8.6,0,0,1-2.786-3.3,3.479,3.479,0,0,1-2.97-1.833c-.174-.807-.314-1.865.427-2.439a2.419,2.419,0,0,1,2.535-.28c.834.26,1.257,1.129,2.052,1.455a2.381,2.381,0,0,0,2.405-1.789c-1.411-1.458-3.588-1.006-5.375-1.477a2.6,2.6,0,0,1-2.035-2.422c-.02-.825-.118-1.848.636-2.4,1.5-1.475,3.738-1.365,5.686-1.392a3.254,3.254,0,0,0-.142-1.2c-2.008,0-4.018-.025-6.025.015q0-1.042-.007-2.081c4.04-.037,8.082.032,12.119-.052a5.71,5.71,0,0,1,3.1-3.615M32.68,86.1c2.371.059,4.741-.027,7.112-.029A3.132,3.132,0,0,0,36.44,83.8c-1.571-.155-3.453.577-3.76,2.3m17.236,2.076a6.9,6.9,0,0,1-.017,4.189,6.712,6.712,0,0,1-1.765,2.039c.371.542.817,1.227,1.556,1.222a2.746,2.746,0,0,0,2.847-1.868c.557-1.816.329-3.73.366-5.6Z" transform="translate(-10.685 -34.805)" fill="#fefefe"/>
        <path id="Path_85854" data-name="Path 85854" d="M130.138,82.142a13.075,13.075,0,0,0,1.686.974,5.133,5.133,0,0,1-3.186,2.341,4.107,4.107,0,0,1-4.992-2.437,3.681,3.681,0,0,1,1.674-.668,4.008,4.008,0,0,0,1.821.955A3.382,3.382,0,0,0,130.138,82.142Z" transform="translate(-52.054 -34.997)" fill="#fefefe"/>
        <path id="Path_85855" data-name="Path 85855" d="M106.385,88.672c2.655-.969,6.133.935,6.27,3.885-.1,1.293-.255,2.771-1.3,3.674.525.513,1.212,1,1.323,1.777.206,1.136.464,2.454-.4,3.4-1.882,2.749-6.447,2.653-8.4.042a5.336,5.336,0,0,1-.741-1.99c.616-.39,1.23-.785,1.848-1.176a3.671,3.671,0,0,0,1.561,2.214,1.845,1.845,0,0,0,2.378-.265c.815-.741.537-1.929.508-2.9-.456-1.21-1.973-.66-2.95-.807.025-.562.052-1.122.074-1.681,1.431.275,2.609-1.014,2.923-2.29a1.4,1.4,0,0,0-1.617-1.2c-1.045-.233-1.465,1.134-2.417,1.166a10.178,10.178,0,0,1-1.465-1.043,3.228,3.228,0,0,1,2.4-2.81Z" transform="translate(-44.077 -37.438)" fill="#fefefe"/>
        <path id="Path_85856" data-name="Path 85856" d="M119.58,88.856q20.788-.029,41.574,0c-.029.69-.029,1.382-.007,2.071-.81.012-1.617-.01-2.425-.015.042,4.3-.022,8.607.029,12.911a19.756,19.756,0,0,1-3-.054c.059-2.184-.091-4.368-.108-6.553a3.184,3.184,0,0,0-.852.319c-1.428.785-2.992,1.3-4.371,2.179-.442-.751-.78-1.553-1.193-2.322a5.752,5.752,0,0,0,1.514-.987,1.648,1.648,0,0,0-1.723-.744,2.439,2.439,0,0,0-1.8,2.459c0,1.531,1.423,2.427,2.368,3.424-.363.771-.763,1.522-1.166,2.273a8.676,8.676,0,0,1-3.991-4.842,5.524,5.524,0,0,1,.648-4.285,4.395,4.395,0,0,1,4.148-2.086,8.223,8.223,0,0,1,4.668,1.922,17.158,17.158,0,0,1,1.6-.658c-.01-.974-.02-1.949.052-2.92-4.341-.056-8.685-.007-13.027-.02.066,4.3-.071,8.6.029,12.892-.977.064-1.958.037-2.935.025,0-1.207.034-2.417.069-3.625-2.015.53-4.415,1.031-6.231-.312-1.446-.93-1.622-2.793-1.858-4.339,1.892.039,3.23-2.626,1.858-4-.979-1.1-2.577-.491-3.853-.717q-.037,6.479.017,12.965c-.962-.022-1.924-.017-2.884-.081.1-4.27-.015-8.543.059-12.816q-1.119,0-2.238-.022c.081,4.3-.029,8.6.059,12.9-1.036.083-2.076.054-3.114.034.049-2.363.076-4.729.015-7.093q-1.134.066-2.268.052c0-.935,0-1.868.049-2.8.756,0,1.512,0,2.27,0-.017-1.023-.042-2.044,0-3.068-.663.012-1.323.029-1.983.032.017-.7.027-1.4,0-2.1m16.868,2.052a9.954,9.954,0,0,1,.191,3.495,3.79,3.79,0,0,1-1.895,2.552c.7,1.779,3.8,1.88,4.494.029.758-1.931.336-4.049.439-6.069Q138.061,90.933,136.447,90.907Z" transform="translate(-50.341 -37.602)" fill="#fefefe"/>
      </g>
      <g id="Group_97155" data-name="Group 97155" transform="translate(0 0)">
        <path id="Path_85857" data-name="Path 85857" d="M57.95.943C59.786.806,61.637.83,63.475.671c2.211.2,4.445.076,6.641.442a60.747,60.747,0,0,1,24.228,8.02,65.192,65.192,0,0,1,10.732,7.932c1.4,1.47,2.967,2.783,4.219,4.386a60.78,60.78,0,0,1,8,11.343c.594,1.3,1.377,2.5,1.85,3.856a60,60,0,0,1,3.578,10.023,80.717,80.717,0,0,1,1.659,10.035c.137,3.232.123,6.467,0,9.7a76.521,76.521,0,0,1-1.777,10.425c-.626,1.708-.952,3.512-1.647,5.2a60.432,60.432,0,0,1-16.254,24.25c-1.487,1.387-3.078,2.655-4.658,3.934a62.479,62.479,0,0,1-5.375,3.49,60.643,60.643,0,0,1-10.965,5.193c-1.62.479-3.217,1.023-4.837,1.5a59.632,59.632,0,0,1-11.23,1.723,43.017,43.017,0,0,1-7.112.135c-1.325-.223-2.685-.064-4-.336-.852-.15-1.725-.093-2.57-.292a75.131,75.131,0,0,1-7.893-1.8,54.093,54.093,0,0,1-8.354-3.21,62.255,62.255,0,0,1-6.477-3.392A64.565,64.565,0,0,1,21.3,105.5,59.951,59.951,0,0,1,5.541,81a14.488,14.488,0,0,1-.825-2.606A59.683,59.683,0,0,1,2.353,58.921,68.522,68.522,0,0,1,3.5,49.411,61.74,61.74,0,0,1,10.03,31.994c.636-1.367,1.607-2.53,2.307-3.86a60.385,60.385,0,0,1,12.688-13.81A58.607,58.607,0,0,1,32.24,9.261c1.168-.508,2.147-1.36,3.345-1.8A57.242,57.242,0,0,1,47.658,2.823,70.959,70.959,0,0,1,57.95.943m2.194,2.4A67.044,67.044,0,0,0,48.5,5.187a66.773,66.773,0,0,0-9.186,3.291A58.756,58.756,0,0,0,9.23,39.511,59.99,59.99,0,0,0,5.436,53.09a57.1,57.1,0,0,0,.7,20.416A58.64,58.64,0,0,0,112.517,93.233a57.785,57.785,0,0,0,1.919-60.25A58.624,58.624,0,0,0,71.809,3.9a61.158,61.158,0,0,0-11.665-.555Z" transform="translate(-2.295 -0.671)" fill="#02164f"/>
        <path id="Path_85858" data-name="Path 85858" d="M60.9,8.995a56.319,56.319,0,0,1,62.042,51.072c-.044,1.89.336,3.762.209,5.647a41.581,41.581,0,0,0-.2,4.388,47.809,47.809,0,0,1-1.095,7.387c-.4,1.625-1.053,3.168-1.558,4.759a56.494,56.494,0,0,1-28.456,32.7A55.648,55.648,0,0,1,73.8,120.393c-1.22.231-2.474.12-3.694.375a57.268,57.268,0,0,1-26.571-4.962A55.809,55.809,0,0,1,10.972,57.619a47.827,47.827,0,0,1,1.495-7.554A56.251,56.251,0,0,1,36.614,17.476a53.256,53.256,0,0,1,11.868-5.726,44.215,44.215,0,0,1,5.927-1.684A55.28,55.28,0,0,1,60.9,8.995m-6,2.3A55.377,55.377,0,0,0,16.175,43.447c-.881,1.941-1.473,4-2.243,5.981q40.726-.007,81.447-.194c8.03,0,16.06-.044,24.093-.027A54.042,54.042,0,0,0,105,25.423,55.282,55.282,0,0,0,80.212,11.662a55.868,55.868,0,0,0-25.31-.371M22.62,53.1c-.761.4-1.612,1.36-1.041,2.241a1.73,1.73,0,0,0,2.916.358c1.151-1.149-.459-3.168-1.875-2.6m7.556.92a5.71,5.71,0,0,0-3.1,3.615c-4.037.083-8.079.015-12.119.052q.011,1.038.007,2.081c2.008-.039,4.018-.017,6.025-.015a3.254,3.254,0,0,1,.142,1.2c-1.949.027-4.187-.083-5.686,1.392-.753.55-.655,1.573-.636,2.4a2.6,2.6,0,0,0,2.035,2.422c1.787.471,3.964.02,5.375,1.477a2.381,2.381,0,0,1-2.405,1.789c-.8-.326-1.217-1.2-2.052-1.455a2.419,2.419,0,0,0-2.535.28c-.741.574-.6,1.632-.427,2.439a3.479,3.479,0,0,0,2.97,1.833,8.6,8.6,0,0,0,2.786,3.3c.591-.616,1.08-1.315,1.654-1.946-.429-.363-1.006-.7-1.092-1.306.621-1.072,2.189-.7,2.967-1.6a4.048,4.048,0,0,0,1.124-2.56c.015-1.34-.164-3.006-1.485-3.711-1.73-.923-3.762-.285-5.618-.491-.641-.1-.437-.859-.4-1.308a36.01,36.01,0,0,1,6.766-.272c.135-1.3.044-2.6.054-3.9a10.8,10.8,0,0,1,2.454.135c.02,4.295-.029,8.592.074,12.884.923-.044,1.848-.034,2.773-.056-.029-4.31.032-8.622-.01-12.934,2.449.015,4.9-.015,7.353.017-.012.469-.02.942-.029,1.414-1.259.01-2.606-.2-3.765.422a2.729,2.729,0,0,0-1.762,2.383c-.42,1.134.434,2.206,1.347,2.785,1.752,1.095,3.917.947,5.826,1.541,0,.459.253,1.141-.329,1.352C36.8,70.686,34.8,70,33.131,69.353c-.479.589-1.009,1.136-1.47,1.738a8.018,8.018,0,0,0,7.669,1.183,4.508,4.508,0,0,0,2.663-4.594,2.293,2.293,0,0,0-1.166-1.139c-1.934-1.045-4.216-.837-6.3-1.372-.042-.309-.083-.618-.118-.928a4.145,4.145,0,0,1,2.319-.348c1.293,0,2.587-.088,3.88-.027a26.515,26.515,0,0,0,0-4.118c1.085.14,2.459-.412,3.286.53a2.149,2.149,0,0,1,.736,1.988c-.228,1.315-1.527,2.071-2.7,2.432a7.2,7.2,0,0,0,3.375,4.712,5.4,5.4,0,0,0,4.977-.125c-.025,1.146-.047,2.292-.025,3.438,1.038-.032,2.074-.037,3.112,0-.1-4.307.128-8.607.137-12.909,3.144-.061,6.29-.017,9.434-.049-.069,1.151-.106,2.307-.088,3.46a51.811,51.811,0,0,1-6.018.115,2.022,2.022,0,0,0-2.074,2.125c-.022,1.35,1.392,2.776,2.766,2.177.93-.275,1.4-1.149,2.012-1.814,1.028-.025,2.059.012,3.09,0-.027,2.258-.015,4.518-.083,6.778,1.026.022,2.052.037,3.078-.015.02-4.273.187-8.541.118-12.816.434-.022.869-.039,1.3-.064-.025-.668-.025-1.338,0-2.005-8.933-.025-17.871.027-26.8-.061a5.4,5.4,0,0,0-3.2-3.559,7.8,7.8,0,0,0-6.862-.074m55.941-.459a3.382,3.382,0,0,1-3,1.166,4.008,4.008,0,0,1-1.821-.955,3.681,3.681,0,0,0-1.674.668,4.107,4.107,0,0,0,4.992,2.437A5.133,5.133,0,0,0,87.8,54.535a13.075,13.075,0,0,1-1.686-.974M70.342,57.649a3.228,3.228,0,0,0-2.4,2.81A10.177,10.177,0,0,0,69.407,61.5c.952-.032,1.372-1.4,2.417-1.166a1.4,1.4,0,0,1,1.617,1.2c-.314,1.276-1.492,2.565-2.923,2.29-.022.56-.049,1.119-.074,1.681.977.147,2.493-.4,2.95.807.029.969.307,2.157-.508,2.9a1.845,1.845,0,0,1-2.378.265,3.671,3.671,0,0,1-1.561-2.214c-.618.39-1.232.785-1.848,1.176a5.336,5.336,0,0,0,.741,1.99c1.951,2.611,6.516,2.707,8.4-.042.859-.945.6-2.263.4-3.4-.11-.78-.8-1.264-1.323-1.777,1.045-.9,1.2-2.381,1.3-3.674-.137-2.95-3.615-4.854-6.27-3.885m6.931.02c.022.7.012,1.4,0,2.1.66,0,1.32-.02,1.983-.032-.037,1.023-.012,2.044,0,3.068-.758.007-1.514.007-2.27,0-.044.933-.044,1.865-.049,2.8q1.134.015,2.268-.052c.061,2.363.034,4.729-.015,7.093,1.038.02,2.079.049,3.114-.034-.088-4.3.022-8.6-.059-12.9q1.119.018,2.238.022c-.074,4.273.044,8.545-.059,12.816.96.064,1.922.059,2.884.081q-.052-6.483-.017-12.965c1.276.226,2.874-.388,3.853.717,1.372,1.377.034,4.042-1.858,4,.236,1.546.412,3.409,1.858,4.339,1.816,1.342,4.216.842,6.231.312-.034,1.207-.066,2.417-.069,3.625.977.012,1.958.039,2.935-.025-.1-4.295.037-8.595-.029-12.892,4.341.012,8.685-.037,13.027.02-.071.972-.061,1.946-.052,2.92a17.16,17.16,0,0,0-1.6.658,8.223,8.223,0,0,0-4.668-1.922,4.395,4.395,0,0,0-4.148,2.086,5.524,5.524,0,0,0-.648,4.285,8.676,8.676,0,0,0,3.991,4.842c.4-.751.8-1.5,1.166-2.273-.945-1-2.363-1.892-2.368-3.424a2.439,2.439,0,0,1,1.8-2.459,1.648,1.648,0,0,1,1.723.744,5.752,5.752,0,0,1-1.514.987c.412.768.751,1.571,1.193,2.322,1.379-.876,2.943-1.394,4.371-2.179a3.184,3.184,0,0,1,.852-.319c.017,2.184.167,4.368.108,6.553a19.757,19.757,0,0,0,3,.054c-.052-4.3.012-8.607-.029-12.911.807,0,1.615.027,2.425.015-.022-.69-.022-1.382.007-2.071q-20.785-.048-41.574,0M14.016,80.016a54.978,54.978,0,0,0,19.044,27.9,55.867,55.867,0,0,0,15.719,8.563,70.894,70.894,0,0,0,8.141,2.14,67.9,67.9,0,0,0,7.527.844,55.262,55.262,0,0,0,6.717-.167,52.029,52.029,0,0,0,13.827-2.884A55.154,55.154,0,0,0,119.4,80.75c-3.5-.042-7.009,0-10.514-.034-1.8-.106-3.6-.071-5.4-.083-8.754,0-17.506-.088-26.26-.128-4.5.059-9-.115-13.5-.152-9.49-.169-18.981-.079-28.471-.194-7.08-.059-14.161-.032-21.239-.142Z" transform="translate(-5.488 -3.787)" fill="#02164f"/>
        <path id="Path_85859" data-name="Path 85859" d="M42.465,87.457c.307-1.723,2.189-2.454,3.76-2.3a3.132,3.132,0,0,1,3.352,2.27C47.206,87.43,44.836,87.516,42.465,87.457Z" transform="translate(-17.924 -33.534)" fill="#02164f"/>
        <path id="Path_85860" data-name="Path 85860" d="M69.542,92.324l2.987-.015c-.037,1.868.191,3.782-.366,5.6a2.745,2.745,0,0,1-2.847,1.868c-.739,0-1.185-.68-1.556-1.222a6.712,6.712,0,0,0,1.765-2.039A6.9,6.9,0,0,0,69.542,92.324Z" transform="translate(-27.765 -36.324)" fill="#02164f"/>
        <path id="Path_85861" data-name="Path 85861" d="M146.319,92.225q1.616.026,3.23.007c-.1,2.02.319,4.138-.439,6.069-.69,1.85-3.794,1.75-4.494-.029a3.79,3.79,0,0,0,1.895-2.552A9.954,9.954,0,0,0,146.319,92.225Z" transform="translate(-57.667 -36.291)" fill="#02164f"/>
        <path id="Path_85862" data-name="Path 85862" d="M153.17,205.49a11.707,11.707,0,0,1,7.093.955,8.917,8.917,0,0,1,4.469,5.824,15.086,15.086,0,0,1-.1,7.525,8.789,8.789,0,0,1-5.058,5.755,12.175,12.175,0,0,1-5.78.68,8.854,8.854,0,0,1-6.739-4.108c-1.693-2.766-1.806-6.207-1.259-9.323a8.921,8.921,0,0,1,7.375-7.306m.476,3.632a5.2,5.2,0,0,0-3.536,3.755,11.169,11.169,0,0,0,.157,6.283,5.258,5.258,0,0,0,4.746,3.566,5.193,5.193,0,0,0,4.7-2.2,8.837,8.837,0,0,0,1.193-5.181,7.125,7.125,0,0,0-1.693-4.916,5.644,5.644,0,0,0-5.571-1.308Z" transform="translate(-58.012 -80.3)" fill="#02164f"/>
        <path id="Path_85863" data-name="Path 85863" d="M12.357,205.982c1.347-.015,2.692-.012,4.04,0,.012,6.724,0,13.451.007,20.176-1.352.007-2.7,0-4.052,0C12.357,219.434,12.345,212.709,12.357,205.982Z" transform="translate(-6.208 -80.546)" fill="#02164f"/>
        <path id="Path_85864" data-name="Path 85864" d="M61.945,205.98c1.308,0,2.619-.027,3.927.017,0,6.717-.007,13.434,0,20.149-1.207.025-2.415.02-3.622.017-.007-.658-.01-1.315-.017-1.971a5.721,5.721,0,0,1-9.733-.8,10.644,10.644,0,0,1-.911-6.209,6.807,6.807,0,0,1,2.378-4.7,6.04,6.04,0,0,1,4.992-1.126,6.687,6.687,0,0,1,2.994,1.784c-.029-2.385-.012-4.771-.012-7.154m-4.278,8.462a3.35,3.35,0,0,0-1.895,2.282,9.734,9.734,0,0,0-.069,3.787,3.489,3.489,0,0,0,1.89,2.68,2.893,2.893,0,0,0,3.109-.535A5.186,5.186,0,0,0,62,218.538a5.067,5.067,0,0,0-1.166-3.473A2.988,2.988,0,0,0,57.667,214.442Z" transform="translate(-21.439 -80.546)" fill="#02164f"/>
        <path id="Path_85865" data-name="Path 85865" d="M80.862,205.973c1.3,0,2.6,0,3.9,0q.011,1.778,0,3.554c-1.3,0-2.6,0-3.9,0C80.822,208.348,80.822,207.158,80.862,205.973Z" transform="translate(-32.851 -80.547)" fill="#02164f"/>
        <path id="Path_85866" data-name="Path 85866" d="M182.381,205.986q1.955-.022,3.914,0,.018,1.767,0,3.539-1.955.018-3.914,0Q182.36,207.754,182.381,205.986Z" transform="translate(-72.356 -80.547)" fill="#02164f"/>
        <path id="Path_85867" data-name="Path 85867" d="M194.924,206c1.308-.044,2.616-.027,3.924-.017q.015,10.09,0,20.176c-1.311,0-2.621.015-3.929-.012Q194.94,216.073,194.924,206Z" transform="translate(-77.239 -80.546)" fill="#02164f"/>
        <path id="Path_85868" data-name="Path 85868" d="M31.783,214.768a5.87,5.87,0,0,1,5.321,1.109c1.136,1.124,1.232,2.81,1.269,4.317.015,3.1-.01,6.2.01,9.3-1.311.025-2.621.015-3.934.01-.069-3.348.167-6.712-.16-10.047-.184-1.831-2.54-2.378-3.885-1.409-1.2.65-1.419,2.108-1.46,3.343-.039,2.7,0,5.407-.022,8.111-1.308.01-2.619.015-3.927,0,.017-4.884,0-9.768.01-14.651,1.22-.007,2.439,0,3.657-.007.022.643.022,1.288.025,1.934a7,7,0,0,1,3.1-2.005Z" transform="translate(-11.127 -83.893)" fill="#02164f"/>
        <path id="Path_85869" data-name="Path 85869" d="M94.839,215.25a11.57,11.57,0,0,1,5.6-.589c1.62.135,3.458.881,4.037,2.528,1,4.037-.672,8.43,1.112,12.32-1.328-.007-2.658.044-3.986-.037-.125-.471-.265-.937-.4-1.4a6.843,6.843,0,0,1-3.644,1.782,5.693,5.693,0,0,1-4.26-.991,4.347,4.347,0,0,1-.5-6.077,6.592,6.592,0,0,1,3.642-1.713c1.5-.3,3-.591,4.467-1.028a2.1,2.1,0,0,0-.631-2.069,4.574,4.574,0,0,0-2.707-.329c-.942.106-1.453.994-1.821,1.765-1.188-.179-2.366-.415-3.554-.6a5.523,5.523,0,0,1,2.651-3.556m1.988,8.4a1.68,1.68,0,0,0-.815,2.5c.839,1.4,2.93,1.168,4.008.174,1.144-.869.871-2.454.918-3.708a41.248,41.248,0,0,0-4.111,1.031Z" transform="translate(-37.112 -83.897)" fill="#02164f"/>
        <path id="Path_85870" data-name="Path 85870" d="M125.515,214.787a5.828,5.828,0,0,1,5.456,1.139c1.075,1.126,1.188,2.781,1.207,4.258,0,3.1.007,6.212-.007,9.316-1.308.01-2.619.015-3.927,0-.069-3.375.182-6.766-.164-10.126-.253-1.89-2.8-2.295-4.076-1.173-1.112.768-1.21,2.236-1.261,3.465-.029,2.609,0,5.22-.01,7.831-1.308.029-2.619.012-3.927.01.01-4.889-.034-9.777.022-14.666,1.217,0,2.435,0,3.652,0,0,.623,0,1.249.029,1.875a7.55,7.55,0,0,1,3.006-1.929Z" transform="translate(-47.622 -83.891)" fill="#02164f"/>
        <path id="Path_85871" data-name="Path 85871" d="M80.842,215.012c1.3,0,2.6,0,3.9,0,.054,4.889.015,9.777.02,14.666-1.311.01-2.621.012-3.929-.012C80.847,224.78,80.83,219.9,80.842,215.012Z" transform="translate(-32.851 -84.062)" fill="#02164f"/>
        <path id="Path_85872" data-name="Path 85872" d="M182.385,215c1.3.012,2.6.015,3.9,0,.032,4.891.012,9.782.01,14.674q-1.962.011-3.922,0c0-4.891-.02-9.782.01-14.671Z" transform="translate(-72.355 -84.057)" fill="#02164f"/>
      </g>
      <g id="Group_97156" data-name="Group 97156" transform="translate(8.444 6.233)">
        <path id="Path_85873" data-name="Path 85873" d="M57.087,12.145a55.868,55.868,0,0,1,25.31.371,55.282,55.282,0,0,1,24.785,13.761A54.042,54.042,0,0,1,121.656,50.06c-8.033-.017-16.063.022-24.093.027q-40.719.239-81.447.194c.771-1.985,1.362-4.04,2.243-5.981A55.377,55.377,0,0,1,57.087,12.145Z" transform="translate(-16.117 -10.874)" fill="#f37022"/>
        <path id="Path_85874" data-name="Path 85874" d="M16.253,125.446c7.078.11,14.158.083,21.239.142,9.49.115,18.981.025,28.471.194,4.5.037,8.995.211,13.5.152,8.754.039,17.506.128,26.26.128,1.8.012,3.6-.022,5.4.083,3.5.039,7.009-.007,10.514.034a55.154,55.154,0,0,1-34.405,35.659A52.028,52.028,0,0,1,73.4,164.723a55.262,55.262,0,0,1-6.717.167,67.9,67.9,0,0,1-7.527-.844,70.9,70.9,0,0,1-8.141-2.14A55.866,55.866,0,0,1,35.3,153.343a54.978,54.978,0,0,1-19.044-27.9Z" transform="translate(-16.17 -55.45)" fill="#f37022"/>
      </g>
    </g>
  </g>
</svg>
