<svg xmlns="http://www.w3.org/2000/svg" id="Layer_1" data-name="Layer 1" viewBox="0 0 701 282"><defs><style>      .cls-1 {        fill: #ff671f;      }      .cls-1, .cls-2, .cls-3, .cls-4, .cls-5, .cls-6, .cls-7, .cls-8, .cls-9, .cls-10, .cls-11 {        stroke-width: 0px;      }      .cls-2 {        fill: #aa272f;      }      .cls-3 {        fill: #046a38;      }      .cls-4 {        fill: #00549f;      }      .cls-5 {        fill: #008542;      }      .cls-6 {        fill: #0d0d8c;      }      .cls-7 {        fill: #f8f8fb;      }      .cls-8 {        fill: #fc812d;      }      .cls-9 {        fill: #fff;      }      .cls-10 {        fill: #01a651;      }      .cls-11 {        fill: #050388;      }    </style></defs><path class="cls-11" d="M522.86,96.04c1.95-6.3,3.74-12.06,5.53-17.83,1.18-3.81,2.4-7.61,3.47-11.44.35-1.25.93-1.59,2.16-1.55,2.82.09,5.65.06,8.48.01,1.02-.02,1.54.12,1.72,1.37,1.98,14.18,4.04,28.35,6.11,42.52.22,1.52.04,2.26-1.77,2.09-1.91-.18-3.86-.12-5.78-.01-1.33.07-1.87-.22-2.04-1.72-1.11-9.85-2.36-19.69-3.57-29.54-.03-.25-.09-.49-.22-1.24-1.96,6.27-3.77,12.09-5.59,17.91-1.37,4.4-2.77,8.78-4.06,13.2-.31,1.08-.79,1.43-1.87,1.38-2.33-.11-5.14.67-6.87-.38-1.64-.99-1.6-4.04-2.27-6.19-2.44-7.81-4.86-15.62-7.29-23.43-.18-.57-.4-1.13-.78-2.22-.89,7.1-1.72,13.64-2.53,20.19-.44,3.55-.9,7.11-1.29,10.67-.11,1.04-.54,1.39-1.58,1.36-2.13-.07-4.28-.09-6.41,0-1.36.06-1.76-.25-1.54-1.71,1.05-6.87,1.98-13.76,2.97-20.65,1.06-7.36,2.17-14.71,3.16-22.08.17-1.25.56-1.58,1.77-1.54,2.96.09,5.93.09,8.89,0,1.21-.04,1.64.41,1.98,1.51,2.82,9.13,5.71,18.23,8.59,27.34.14.45.3.9.66,1.97Z"></path><path class="cls-11" d="M374.74,111.17c-3.89,0-7.4-.05-10.9.03-1.15.02-1.55-.75-2.07-1.43-3.2-4.23-6.38-8.47-9.57-12.71-.51-.68-1.04-1.34-2.01-1.81,0,4.58-.11,9.17.05,13.74.06,1.88-.49,2.37-2.29,2.23-2.12-.16-4.27-.1-6.41-.01-1.11.04-1.38-.35-1.38-1.41.03-14.41.02-28.81.02-43.22,0-.7-.12-1.37.99-1.33,6.46.24,12.98-.64,19.38.59,13.03,2.51,14.3,15.4,9.93,22.02-1.86,2.81-4.44,4.68-7.63,5.68-1.41.44-1.71.82-.64,2.1,4.03,4.8,7.94,9.7,11.89,14.57.16.2.28.43.63.98ZM350.18,80.68c0,1.79.01,3.58,0,5.37,0,.67,0,1.24.93,1.2,2.26-.08,4.54.21,6.77-.44,3.04-.88,4.67-2.96,4.67-5.99,0-3.09-1.58-5.13-4.63-6-2.22-.63-4.5-.42-6.77-.48-.88-.03-.99.47-.98,1.18.03,1.72,0,3.44,0,5.16Z"></path><path class="cls-11" d="M288.84,111.17c1.96-5.23,3.86-10.29,5.76-15.36,3.61-9.65,7.23-19.29,10.77-28.96.46-1.25,1.02-1.68,2.34-1.64,2.89.1,5.79.07,8.68,0,.99-.02,1.44.34,1.78,1.24,5.42,14.4,10.85,28.79,16.34,43.17.55,1.44.12,1.6-1.17,1.56-2.48-.07-4.96-.08-7.44,0-1.09.04-1.55-.37-1.89-1.37-.94-2.8-2.02-5.55-2.97-8.35-.35-1.04-.78-1.54-2.01-1.52-4.75.09-9.51.08-14.26,0-1.18-.02-1.69.36-2.04,1.47-.9,2.81-1.95,5.57-2.89,8.37-.29.86-.59,1.41-1.67,1.39-3.02-.08-6.05-.03-9.32-.03ZM311.86,75.67c-1.93,5.28-3.68,10.11-5.45,14.93-.38,1.04.14,1.13.97,1.13,2.96-.03,5.92-.03,8.87,0,.99.01,1.38-.14.96-1.26-1.77-4.75-3.46-9.53-5.36-14.8Z"></path><path class="cls-11" d="M376.1,111.17c2.41-6.42,4.72-12.58,7.03-18.74,3.2-8.55,6.41-17.1,9.55-25.68.42-1.15.96-1.58,2.2-1.54,2.89.1,5.79.09,8.68,0,1.1-.03,1.55.39,1.92,1.35,5.4,14.33,10.8,28.66,16.27,42.96.57,1.5.16,1.72-1.23,1.67-2.41-.09-4.82-.1-7.23,0-1.19.05-1.68-.38-2.04-1.46-.93-2.8-2.06-5.54-2.98-8.34-.37-1.13-.93-1.44-2.07-1.42-4.75.07-9.51.06-14.26,0-1.07-.01-1.57.31-1.9,1.35-.9,2.81-1.97,5.57-2.88,8.37-.35,1.07-.81,1.55-2.02,1.5-2.89-.1-5.78-.03-9.03-.03ZM399.09,75.68c-1.92,5.29-3.7,10.18-5.46,15.07-.35.96.28.98.96.98,3.03-.01,6.05-.03,9.08,0,1,.01,1.15-.28.81-1.2-1.78-4.8-3.5-9.62-5.4-14.85Z"></path><path class="cls-11" d="M256.49,88.13c0-7.03.04-14.06-.03-21.09-.01-1.43.36-1.88,1.82-1.82,5.91.26,11.87-.54,17.74.58,6.15,1.17,11.17,4.04,13.26,10.38,3.15,9.51-2.62,19.19-12.62,21.37-2.85.62-5.74.72-8.63.65-1.18-.03-1.52.32-1.49,1.49.08,3.31-.04,6.62.06,9.93.04,1.3-.37,1.65-1.63,1.59-2.27-.1-4.56-.13-6.82,0-1.48.09-1.67-.52-1.67-1.77.05-7.1.02-14.2.02-21.3ZM266.55,81.75c0,2.06.01,4.12,0,6.19,0,.74-.02,1.34,1.03,1.31,2.19-.07,4.4.11,6.57-.39,3.44-.79,5.62-3.42,5.7-6.86.09-3.74-1.83-6.25-5.45-7.2-2.09-.55-4.23-.37-6.35-.47-1.13-.06-1.58.23-1.52,1.45.1,1.99.03,3.98.03,5.98Z"></path><path class="cls-11" d="M557.85,88.15c0-7.03.04-14.06-.03-21.09-.01-1.42.32-1.91,1.81-1.85,5.98.26,12-.55,17.93.6,5.82,1.13,10.66,3.8,12.9,9.7,3.68,9.66-2.16,19.86-12.51,22.05-2.78.59-5.6.7-8.42.62-1.29-.04-1.66.38-1.62,1.64.08,3.24-.02,6.48.05,9.72.03,1.23-.27,1.72-1.6,1.65-2.27-.11-4.55-.11-6.82,0-1.4.07-1.72-.42-1.71-1.75.06-7.1.03-14.2.03-21.3ZM567.93,81.65c0,2.07,0,4.14,0,6.2,0,.71-.05,1.4,1.01,1.38,2.34-.03,4.7.17,6.99-.47,3.36-.94,5.46-3.79,5.39-7.21-.07-3.49-2.18-5.93-5.78-6.81-2.04-.5-4.11-.29-6.17-.43-1.23-.08-1.51.4-1.47,1.54.08,1.93.02,3.86.02,5.79Z"></path><path class="cls-11" d="M651.82,77.13c-10.33-6.38-18.96-3.25-22.85,1.61-3.96,4.95-4.27,13.14-.44,18.3,2.76,3.72,6.52,5.62,11.09,5.89,4.42.26,8.3-1.38,12.19-3.93,0,3.33-.01,6.34,0,9.35,0,.94-.74,1.05-1.33,1.33-16.23,7.62-35.15-2.52-34.86-21.92.28-18.54,18.41-28.64,34.91-21.11.58.26,1.31.41,1.3,1.37-.04,2.94-.02,5.88-.02,9.11Z"></path><path class="cls-11" d="M473.32,84c1.79-3.07,3.41-5.85,5.03-8.62,1.73-2.97,3.47-5.94,5.16-8.93.44-.78.88-1.25,1.89-1.23,3.03.07,6.05.03,9.08.03.25.89-.38,1.36-.72,1.91-4.91,8.04-9.82,16.09-14.78,24.1-.68,1.1-.99,2.18-.98,3.48.06,4.82-.06,9.65.07,14.47.04,1.7-.51,2.11-2.08,2-1.92-.13-3.87-.15-5.78,0-1.68.13-2.24-.32-2.2-2.1.13-4.82.02-9.65.06-14.47.01-1.22-.26-2.24-.91-3.28-4.98-8-9.92-16.03-14.86-24.06-.35-.56-.87-1.06-.91-2.05,3.45,0,6.85,0,10.26,0,1.01,0,1.15.86,1.51,1.47,3.32,5.62,6.63,11.26,10.17,17.29Z"></path><path class="cls-11" d="M427.44,88.06c0-6.96.06-13.92-.05-20.88-.03-1.7.52-2.07,2.07-1.97,2.06.13,4.14.13,6.2,0,1.46-.09,1.82.37,1.81,1.81-.06,10.82.04,21.63-.09,32.45-.03,2.22.62,2.71,2.71,2.64,4.82-.16,9.65.03,14.47-.1,1.7-.05,2.08.52,1.98,2.07-.13,1.92-.07,3.86-.01,5.78.03.96-.25,1.32-1.28,1.32-8.82-.03-17.64-.05-26.46.01-1.37,0-1.36-.66-1.36-1.64.02-7.17.01-14.33.01-21.5Z"></path><path class="cls-11" d="M608.23,88.39c0,7.03-.04,14.06.03,21.09.01,1.35-.35,1.79-1.72,1.73-2.34-.11-4.69-.08-7.03,0-1.08.03-1.42-.32-1.42-1.4.03-14.4.03-28.8,0-43.2,0-1.12.37-1.4,1.42-1.37,2.34.07,4.69.13,7.03-.02,1.58-.1,1.73.57,1.72,1.89-.06,7.1-.03,14.19-.03,21.29Z"></path><g><path class="cls-9" d="M197.3,64.14l-10.82,23.52.34.96-73.69,19.72-.5,3.86c-.15.01-.29.03-.44.04-3.13.31-6.26.72-9.37,1.24-4.4.74-8.73,1.73-12.98,3.1-12.92,4.15-23.18,11.79-30.56,23.23-4.24,6.58-7.25,13.72-9.54,21.18-1.53,4.99-2.71,10.06-3.65,15.19-.61,3.38-1.15,6.76-1.55,10.17.06,0,.12,0,.19,0,.5-1.01.95-2.05,1.5-3.04,3.66-6.54,7.9-12.67,13.08-18.12,3.7-3.89,7.68-7.47,11.89-10.8,11.32-8.94,24.04-14.5,38.14-16.7l-.56,4.34h66.12l21.28-11.13,7.86-14.21-.56-1.2c12.3-22.46-6.2-51.37-6.2-51.37Z"></path><path class="cls-1" d="M170.9,21.86c.68.3,1.08.89,1.48,1.47,2.47,3.53,5.04,7,7.61,10.46,3.53,4.76,7.09,9.5,10.25,14.52,2.85,4.53,5.39,9.22,6.91,14.39,1.06,3.6,1.46,7.3,1.22,11.04-.4,6.25-2.71,11.81-6.33,16.87-1.98,2.77-4.26,5.27-6.75,7.58-.73.68-1.62,1.14-2.47,1.66-5.34,3.28-11.12,5.49-17.16,7.04-3.93,1.01-7.91,1.72-11.92,2.26-3.48.46-6.96.8-10.46,1.07-3.4.26-6.79.47-10.19.63-2,.09-4,.21-6,.32-.1,0-.21.04-.31.06-.19,0-.39-.01-.58-.03-1.14-.08-2.25.15-3.38.27-.68-.02-1.35.06-2.02.09-2.87.15-5.73.39-8.59.68-3.13.31-6.26.72-9.37,1.24-4.4.74-8.73,1.73-12.98,3.1-12.92,4.15-23.18,11.79-30.56,23.23-4.24,6.58-7.25,13.72-9.54,21.18-1.53,4.99-2.71,10.06-3.65,15.19-.61,3.38-1.15,6.76-1.55,10.17,0,.15-.02.29-.03.44,0,0,0-.01,0-.01-.1.03-.07.21-.21.2-.49-3.94-.32-7.91-.31-11.86,0-5.06.17-10.12.34-15.18.12-3.49.23-6.99.52-10.48.25-2.95.79-5.87,1.36-8.77,1.19-6.14,2.87-12.14,5.34-17.9,3.04-7.11,7.17-13.5,12.7-18.93,7.71-7.56,16.85-12.54,27.33-15.1,4.37-1.07,8.8-1.75,13.26-2.26,4.83-.55,9.68-.92,14.52-1.33,2.46-.21,4.92-.31,7.39-.44,4.86-.26,9.71-.53,14.56-.96,4.9-.44,9.77-1.05,14.57-2.16,4.44-1.03,8.74-2.46,12.65-4.88,5.99-3.71,9.42-9.08,10.48-16.01.63-4.1.43-8.18-.18-12.25-1.07-7.07-3.21-13.83-5.86-20.45-.74-1.84-1.42-3.71-1.99-5.61-.06-.18-.15-.36-.08-.57h0Z"></path><path class="cls-3" d="M127.58,136.2c.1.18.28.13.43.13,7.1-.09,14.2.17,21.31.16,3.55,0,7.1-.08,10.64-.31,6.95-.45,13.83-1.35,20.52-3.39,5.27-1.61,10.19-3.93,14.52-7.39,6.16-4.91,10.06-11.23,11.81-18.9.29-1.29.51-2.59.7-3.9,0,1.11.03,2.22,0,3.33-.12,3.42-.37,6.84-.8,10.24-.93,7.27-2.56,14.34-5.8,20.96-4.65,9.5-12.08,15.86-21.99,19.41-4.39,1.57-8.92,2.56-13.53,3.21-7.43,1.05-14.92,1.32-22.41,1.41-6.2.07-12.39.11-18.59.19-6.36.08-12.71.31-19.04.85-9.62.82-19.1,2.37-28.31,5.38-11.76,3.84-22.21,9.9-31.19,18.44-.42.4-.86.79-1.36,1.1.02-.11.04-.21.06-.32,0,0,0,.01,0,.01.12-.12.19-.27.21-.43.5-1.01.95-2.05,1.5-3.04,3.66-6.54,7.9-12.67,13.08-18.12,3.7-3.89,7.68-7.47,11.89-10.8,12.18-9.62,25.99-15.33,41.4-17.15,3.4-.4,6.81-.68,10.23-.79.59-.02,1.19.02,1.76-.18.99.03,1.98.08,2.97-.1Z"></path><path class="cls-11" d="M127.58,136.2c-.99.17-1.98.13-2.97.1-3.31-.29-6.05-1.71-8.29-4.16-5.68-6.23-3.48-16.49,4.26-19.85.73-.32,1.49-.53,2.22-.82,1.12-.12,2.24-.35,3.38-.27.19.01.39.02.58.03,6.85.66,11.8,6.35,11.52,13.23-.24,5.74-4.78,10.84-10.44,11.73-.09.01-.18.02-.27.02ZM134.56,117.61c-.49.02-.79-.29-.61-.73.12-.3,0-.42-.16-.58-.2-.2-.4-.4-.6-.61-.18-.19-.33-.29-.63-.15-.34.16-.74-.13-.67-.49.07-.39-.15-.5-.39-.64-.22-.12-.43-.25-.65-.37-.21-.12-.38-.23-.65,0-.31.27-.75.08-.8-.33-.04-.33-.21-.39-.46-.45-.29-.07-.58-.15-.87-.24-.2-.06-.32-.07-.48.14-.28.38-.73.34-.93-.1-.12-.26-.27-.28-.49-.29-.25,0-.5,0-.75,0-.31,0-.55.02-.71.38-.16.35-.58.38-.79.08-.23-.33-.45-.25-.72-.18-.26.07-.51.15-.77.21-.24.06-.38.14-.41.44-.05.41-.47.58-.8.33-.26-.2-.44-.13-.65,0-.2.12-.39.24-.6.35-.28.15-.46.29-.43.68.03.37-.3.63-.64.47-.37-.17-.52.02-.72.21-.18.17-.35.35-.53.53-.18.18-.29.32-.16.63.17.39-.16.77-.59.69-.27-.05-.35.07-.45.24-.16.27-.32.55-.49.82-.12.21-.17.37.02.61.26.32.07.77-.32.81-.34.03-.4.21-.47.45-.07.24-.14.48-.2.72-.07.27-.14.5.18.73.3.21.24.69-.11.83-.31.12-.33.3-.33.55,0,.27,0,.53,0,.8,0,.26,0,.48.33.6.35.13.41.61.11.83-.3.21-.24.43-.18.68.05.24.13.48.2.72.07.26.13.46.49.49.39.03.55.49.3.82-.17.22-.14.37-.02.56.14.24.27.5.42.74.13.21.22.44.6.35.35-.08.68.34.53.66-.17.36,0,.51.21.71.18.17.35.35.52.53.18.18.33.3.63.17.37-.16.73.12.68.53-.03.3.08.42.29.54.25.14.5.28.74.42.22.14.4.18.65-.01.31-.24.74-.07.78.3.04.35.22.43.49.5.29.07.59.14.87.23.21.07.33.05.48-.15.29-.38.71-.32.93.12.11.22.25.27.45.27.23,0,.46.01.69,0,.33,0,.63.04.81-.39.13-.34.61-.34.84-.03.16.22.3.25.52.17.27-.09.54-.15.82-.22.26-.06.46-.13.5-.48.05-.4.49-.57.82-.3.24.2.4.12.6,0,.22-.12.43-.25.65-.37.27-.15.48-.28.43-.68-.05-.37.33-.63.68-.47.27.13.42.05.59-.13.17-.18.35-.35.53-.53.21-.21.42-.37.25-.76-.15-.33.17-.73.53-.65.34.07.44-.09.56-.31.13-.23.26-.46.4-.69.15-.23.22-.42,0-.69-.25-.31-.06-.74.36-.79.27-.03.36-.14.41-.37.06-.28.14-.55.22-.82.08-.27.11-.47-.17-.68-.31-.24-.27-.71.1-.83.39-.13.34-.38.35-.65,0-.27,0-.53,0-.8,0-.24-.03-.4-.32-.51-.39-.15-.45-.6-.12-.86.25-.2.25-.38.17-.63-.08-.27-.15-.55-.22-.82-.06-.23-.12-.39-.44-.42-.39-.04-.6-.47-.36-.75.27-.31.15-.52-.02-.78-.15-.24-.28-.49-.43-.73-.09-.14-.16-.35-.4-.2Z"></path><path class="cls-8" d="M170.91,21.85s-.03-.02-.05-.04c.01,0,.03,0,.03,0,0,.01,0,.03.01.04,0,0,0,0,0,0Z"></path><path class="cls-7" d="M134.56,117.61c.24-.15.31.06.4.2.15.24.28.49.43.73.16.26.29.47.02.78-.24.28-.03.71.36.75.32.03.38.18.44.42.07.27.14.55.22.82.08.25.08.43-.17.63-.33.26-.27.71.12.86.29.11.32.26.32.51,0,.27,0,.53,0,.8,0,.27.04.52-.35.65-.36.12-.41.59-.1.83.28.21.25.42.17.68-.08.27-.16.54-.22.82-.05.23-.14.34-.41.37-.42.05-.62.47-.36.79.22.27.15.46,0,.69-.14.22-.27.46-.4.69-.12.22-.22.38-.56.31-.36-.08-.68.32-.53.65.17.38-.04.55-.25.76-.17.18-.36.35-.53.53-.17.18-.31.26-.59.13-.35-.16-.73.1-.68.47.06.4-.16.53-.43.68-.22.12-.43.24-.65.37-.2.11-.36.19-.6,0-.33-.26-.77-.1-.82.3-.05.36-.24.42-.5.48-.27.07-.55.13-.82.22-.23.07-.36.05-.52-.17-.23-.31-.71-.3-.84.03-.17.43-.48.39-.81.39-.23,0-.46,0-.69,0-.2,0-.34-.05-.45-.27-.22-.45-.63-.5-.93-.12-.16.2-.27.22-.48.15-.29-.09-.58-.16-.87-.23-.27-.06-.45-.15-.49-.5-.04-.37-.47-.54-.78-.3-.25.19-.43.15-.65.01-.24-.15-.49-.29-.74-.42-.21-.12-.33-.25-.29-.54.05-.41-.31-.7-.68-.53-.3.13-.45.02-.63-.17-.17-.18-.35-.36-.52-.53-.2-.2-.38-.36-.21-.71.16-.32-.18-.74-.53-.66-.38.09-.46-.13-.6-.35-.15-.24-.28-.49-.42-.74-.11-.19-.15-.34.02-.56.26-.34.09-.79-.3-.82-.37-.03-.42-.24-.49-.49-.07-.24-.14-.48-.2-.72-.06-.25-.12-.47.18-.68.31-.22.24-.7-.11-.83-.34-.13-.33-.34-.33-.6,0-.27,0-.53,0-.8,0-.25.02-.43.33-.55.35-.14.42-.61.11-.83-.32-.23-.24-.46-.18-.73.06-.24.13-.48.2-.72.07-.24.13-.42.47-.45.4-.03.58-.49.32-.81-.2-.24-.14-.4-.02-.61.16-.27.32-.55.49-.82.1-.17.17-.29.45-.24.43.08.76-.3.59-.69-.13-.31-.02-.45.16-.63.18-.17.35-.36.53-.53.2-.19.35-.38.72-.21.34.16.67-.1.64-.47-.03-.39.15-.53.43-.68.2-.11.4-.23.6-.35.22-.13.39-.2.65,0,.33.25.76.08.8-.33.03-.3.18-.38.41-.44.26-.07.51-.14.77-.21.27-.08.49-.15.72.18.21.3.64.26.79-.08.16-.37.41-.39.71-.38.25,0,.5,0,.75,0,.22,0,.37.03.49.29.2.44.65.48.93.1.16-.21.28-.2.48-.14.29.09.58.17.87.24.25.06.42.12.46.45.05.41.5.6.8.33.26-.23.43-.12.65,0,.22.12.43.25.65.37.25.14.46.25.39.64-.07.37.33.65.67.49.29-.14.45-.04.63.15.2.21.4.41.6.61.17.16.28.29.16.58-.17.44.12.75.61.73ZM132.6,130.57l-.08-.08c-1.58-1.72-2.94-3.65-4.88-5.03-.11-.08-.34-.15-.17-.36.17-.21.29.02.38.1,1.17,1.01,2.55,1.65,3.92,2.33.71.36,1.43.71,2.16,1.08.02-.21-.09-.27-.2-.34-1.88-1.16-3.6-2.6-5.71-3.37-.13-.05-.35-.06-.27-.3.1-.28.29-.07.38-.02,1.37.68,2.86.92,4.33,1.23.96.2,1.92.39,2.89.59-.02-.1-.06-.14-.11-.15-2.33-.7-4.57-1.76-7.03-2-.12-.01-.33.06-.32-.17.01-.25.22-.16.37-.16.07,0,.14,0,.21.02,2.57.44,5.12-.13,7.68-.17-2-.16-4-.3-6.01-.37-.6-.02-1.2.13-1.8.19-.15.01-.4.15-.45-.11-.06-.31.24-.19.37-.22.85-.17,1.72-.22,2.55-.51,1.41-.49,2.83-.95,4.25-1.42-.21-.07-.41-.08-.59-.04-1.41.29-2.81.59-4.22.88-.79.16-1.49.55-2.24.81-.09.03-.19.14-.26-.02-.07-.14-.02-.23.12-.29.1-.04.2-.08.29-.12,2.21-.84,4.03-2.35,5.98-3.61.05-.03.09-.06.14-.08.05-.04.1-.08.15-.11-.01-.01-.03-.03-.04-.03-.07,0-.14.02-.16.1-.05.01-.1.03-.16.04-2.12,1.12-4.41,1.94-6.28,3.51-.09.08-.2.25-.34.06-.14-.18.03-.25.14-.33,1.96-1.37,3.32-3.32,4.92-5.04,0-.05.02-.12,0-.14-.05-.04-.08.02-.1.06-1.72,1.55-3.63,2.91-4.99,4.83-.07.1-.12.35-.34.22-.24-.14-.05-.28.04-.38,1.49-1.76,2.26-3.92,3.34-5.9.05-.1.12-.2-.02-.37-1.2,2.05-2.79,3.82-3.58,6.06-.04.12-.05.37-.29.29-.25-.08-.11-.27-.05-.39.74-1.48.96-3.1,1.31-4.69.1-.47.2-.94.29-1.41.09-.44.18-.89.26-1.33-.76,2.43-1.94,4.73-2.18,7.31-.01.13.05.41-.25.36-.22-.04-.12-.23-.1-.35.31-1.52.17-3.04.08-4.56-.03-.57-.07-1.13-.1-1.7-.02-.54-.04-1.08-.18-1.6,0,2.64-.57,5.27-.11,7.91.02.11.09.26-.1.3-.21.05-.22-.12-.24-.26-.11-.68-.14-1.39-.33-2.04-.48-1.59-1.03-3.16-1.55-4.74-.02-.07,0-.25-.23-.15.61,2.32.77,4.77,1.8,6.99.05.11.2.25-.02.35-.22.11-.24-.1-.28-.21-.78-2.21-2.3-3.98-3.5-5.94-.07-.11-.11-.32-.36-.24,1.21,2.12,1.99,4.47,3.6,6.36.07.08.2.19.05.31-.22.18-.29-.06-.36-.16-1.38-1.96-3.33-3.32-5.06-4.92-.03-.03-.06-.05-.08-.08-.04-.04-.08-.07-.12-.11-.04,0-.11-.03-.12-.01-.04.06.02.07.06.08.03.04.06.08.1.12l.1.11c1.57,1.73,2.94,3.65,4.87,5.03.11.08.39.16.17.39-.18.18-.27-.05-.38-.12-.59-.4-1.1-.9-1.73-1.23-1.34-.69-2.69-1.36-4.03-2.03-.17-.09-.34-.21-.58-.1,2.09,1.22,3.92,2.84,6.22,3.66.14.05.36.07.25.31-.1.2-.26.06-.36,0-1.75-.85-3.67-1.06-5.53-1.48-.29-.07-.59-.15-.88-.19-.29-.03-.58-.22-.96-.06,2.47.66,4.73,1.8,7.25,2.04.12.01.37-.08.33.21-.04.26-.26.15-.38.12-1.36-.27-2.72-.18-4.09-.09-1.28.08-2.56.16-3.83.24,2.64.07,5.27.64,7.91.2.12-.02.35-.14.39.11.04.27-.2.19-.33.21-1.22.15-2.4.43-3.56.84-1.3.46-2.61.88-3.92,1.31.14.04.26.02.38-.01,2.44-.57,4.98-.78,7.3-1.85.11-.05.23-.13.3.05.09.25-.13.25-.26.3-2.29.83-4.12,2.45-6.22,3.67.18.06.29.05.41-.02,1.99-1.08,4.15-1.84,5.92-3.33.07-.06.14-.11.21-.16.08-.06.14-.1.22,0,.07.1.11.18-.02.26-.09.06-.17.13-.25.19-1.89,1.37-3.25,3.25-4.79,4.96-.04.02-.11.04-.06.1.02.02.09,0,.14,0,1.71-1.59,3.65-2.95,5.03-4.88.08-.11.14-.41.38-.2.21.19-.05.32-.14.43-.85,1.02-1.47,2.17-2.04,3.35-.39.81-.81,1.61-1.21,2.42-.04.08-.18.16-.09.29.15.01.21-.08.26-.17,1.17-1.92,2.66-3.64,3.42-5.8.04-.11.03-.37.3-.24.21.1.08.24.03.35-.79,1.6-1.01,3.35-1.39,5.06-.14.65-.27,1.3-.41,1.96.15.02.18-.05.2-.11.67-2.23,1.68-4.37,1.9-6.73.01-.15-.05-.42.24-.37.26.04.1.26.09.39-.04.73-.24,1.44-.19,2.17.11,1.9.22,3.79.33,5.68.2-.85.17-1.72.21-2.58.07-1.57.34-3.15.06-4.73-.04-.24-.07-.49-.1-.74-.01-.12.01-.21.16-.21.11,0,.16.05.17.15.02.12.06.24.07.37.1,1.03.32,2.02.67,3,.49,1.39.94,2.8,1.43,4.27.03-.1.04-.12.04-.13-.02-.14-.05-.28-.08-.42-.55-2.36-.75-4.8-1.79-7.04-.05-.12-.15-.29.07-.35.24-.07.24.18.29.3.78,2.21,2.34,3.94,3.5,5.95.1-.19.07-.32,0-.45-1.03-1.89-1.76-3.96-3.18-5.63-.1-.11-.35-.25-.14-.43.26-.22.32.11.41.23,1.37,1.9,3.25,3.25,4.97,4.79.04.03.08.07.11.1.04.03.08.07.11.1,0,.07.05.1.12.1.02.02.03.05.05.07,0-.02,0-.05.01-.07-.03,0-.05,0-.08,0,.1-.08,0-.12-.04-.17-.04-.04-.07-.08-.11-.12ZM128.45,113.52c0,.07,0,.03,0,0,0,.03,0,.07,0,0ZM115.41,126.53s-.05.03-.08.03c-.02,0-.04-.02-.06-.04.01,0,.03-.02.04-.02.03,0,.06.01.09.02ZM128.45,133.92s0,.01,0,0c0,.01,0,.03,0,0Z"></path><path class="cls-11" d="M132.52,117.05c-1.59,1.73-2.96,3.67-4.92,5.04-.11.08-.27.15-.14.33.15.19.25.01.34-.06,1.87-1.56,4.16-2.39,6.28-3.51.02.03.05.06.07.08-1.96,1.27-3.77,2.77-5.98,3.61-.1.04-.2.08-.29.12-.14.06-.19.15-.12.29.07.16.18.05.26.02.75-.26,1.46-.65,2.24-.81,1.41-.29,2.81-.59,4.22-.88.19-.04.38-.02.59.04-1.42.47-2.84.93-4.25,1.42-.83.29-1.7.34-2.55.51-.14.03-.43-.09-.37.22.05.26.3.13.45.11.6-.05,1.2-.21,1.8-.19,2,.08,4,.21,6.01.37-2.56.04-5.11.61-7.68.17-.07-.01-.14-.02-.21-.02-.15,0-.36-.09-.37.16-.01.22.2.16.32.17,2.47.24,4.7,1.29,7.03,2,.05.01.08.05.11.15-.96-.19-1.93-.38-2.89-.59-1.47-.31-2.96-.55-4.33-1.23-.1-.05-.28-.26-.38.02-.08.24.13.25.27.3,2.11.77,3.83,2.21,5.71,3.37.11.06.22.12.2.34-.73-.36-1.44-.72-2.16-1.08-1.36-.68-2.75-1.32-3.92-2.33-.1-.08-.22-.31-.38-.1-.17.21.07.28.17.36,1.94,1.37,3.3,3.31,4.88,5.03-.04.02-.07.05-.11.07-1.71-1.53-3.6-2.89-4.97-4.79-.09-.12-.15-.45-.41-.23-.21.18.05.32.14.43,1.42,1.68,2.15,3.74,3.18,5.63.07.13.1.26,0,.45-1.17-2.01-2.72-3.75-3.5-5.95-.04-.12-.04-.37-.29-.3-.22.06-.12.23-.07.35,1.04,2.23,1.24,4.68,1.79,7.04.03.14.05.28.08.42,0,.02,0,.03-.04.13-.49-1.47-.94-2.88-1.43-4.27-.34-.98-.57-1.97-.67-3-.01-.12-.05-.24-.07-.37-.02-.1-.07-.15-.17-.15-.15,0-.18.09-.16.21.03.25.06.49.1.74.28,1.58.01,3.15-.06,4.73-.04.86-.01,1.74-.21,2.58-.11-1.89-.23-3.79-.33-5.68-.04-.73.16-1.44.19-2.17,0-.13.17-.35-.09-.39-.29-.05-.22.21-.24.37-.22,2.36-1.23,4.5-1.9,6.73-.02.07-.05.13-.2.11.14-.65.26-1.31.41-1.96.38-1.71.6-3.46,1.39-5.06.06-.11.19-.25-.03-.35-.26-.13-.26.13-.3.24-.76,2.16-2.25,3.89-3.42,5.8-.06.09-.11.19-.26.17-.09-.13.05-.21.09-.29.4-.81.82-1.61,1.21-2.42.57-1.19,1.19-2.34,2.04-3.35.09-.11.34-.25.14-.43-.24-.21-.3.09-.38.2-1.39,1.93-3.32,3.29-5.03,4.88-.03-.03-.05-.07-.08-.1,1.54-1.71,2.9-3.6,4.79-4.96.09-.06.17-.13.25-.19.12-.08.09-.17.02-.26-.07-.11-.14-.07-.22,0-.07.05-.15.1-.21.16-1.76,1.48-3.93,2.24-5.92,3.33-.12.06-.23.08-.41.02,2.1-1.23,3.93-2.84,6.22-3.67.13-.05.36-.05.26-.3-.07-.18-.19-.1-.3-.05-2.32,1.07-4.85,1.28-7.3,1.85-.12.03-.24.06-.38.01,1.31-.44,2.62-.85,3.92-1.31,1.16-.41,2.34-.69,3.56-.84.13-.02.37.06.33-.21-.04-.26-.26-.13-.39-.11-2.65.44-5.27-.13-7.91-.2,1.28-.08,2.56-.15,3.83-.24,1.36-.09,2.73-.18,4.09.09.12.02.35.14.38-.12.04-.28-.21-.19-.33-.21-2.52-.24-4.78-1.37-7.25-2.04.38-.16.67.02.96.06.3.04.59.12.88.19,1.86.42,3.78.62,5.53,1.48.1.05.27.19.36,0,.11-.24-.11-.26-.25-.31-2.3-.83-4.12-2.45-6.22-3.66.25-.12.41.01.58.1,1.35.67,2.69,1.35,4.03,2.03.63.33,1.15.83,1.73,1.23.11.07.21.31.38.12.22-.23-.06-.31-.17-.39-1.93-1.38-3.31-3.3-4.87-5.03.02-.04.05-.07.07-.11,1.73,1.6,3.68,2.97,5.06,4.92.07.11.14.34.36.16.16-.13.02-.23-.05-.31-1.61-1.88-2.39-4.24-3.6-6.36.25-.08.29.13.36.24,1.2,1.96,2.72,3.73,3.5,5.94.04.1.06.31.28.21.22-.1.07-.24.02-.35-1.03-2.22-1.19-4.67-1.8-6.99.22-.1.2.07.23.15.53,1.58,1.08,3.15,1.55,4.74.2.66.23,1.36.33,2.04.02.14.03.31.24.26.19-.04.12-.19.1-.3-.46-2.64.12-5.27.11-7.91.15.52.16,1.06.18,1.6.03.57.07,1.13.1,1.7.09,1.52.23,3.05-.08,4.56-.02.12-.12.31.1.35.3.06.24-.22.25-.36.23-2.58,1.41-4.88,2.18-7.31-.09.44-.17.89-.26,1.33-.09.47-.19.94-.29,1.41-.35,1.59-.57,3.21-1.31,4.69-.06.12-.21.31.05.39.24.08.25-.17.29-.29.79-2.24,2.38-4.01,3.58-6.06.13.17.07.27.02.37-1.08,1.99-1.85,4.15-3.34,5.9-.09.11-.28.25-.04.38.22.13.27-.12.34-.22,1.37-1.92,3.27-3.28,4.99-4.83.04.03.07.05.11.08Z"></path><path class="cls-6" d="M128.45,113.52c0,.07,0,.03,0,0,0,.03,0,.07,0,0Z"></path><path class="cls-6" d="M115.41,126.53s-.06-.02-.09-.02c-.01,0-.03.01-.04.02.02.01.04.04.06.04.03,0,.05-.02.08-.03Z"></path><path class="cls-6" d="M128.45,133.92s0,.01,0,0c0,.01,0,.03,0,0Z"></path><path class="cls-6" d="M134.24,118.81c.02-.08.09-.1.16-.1.01,0,.03.02.04.03-.05.04-.1.08-.15.11-.02-.01-.03-.03-.05-.04Z"></path><path class="cls-6" d="M118.68,116.8s-.1-.02-.06-.08c.01-.02.08,0,.12.01-.02.02-.04.04-.06.06Z"></path><path class="cls-6" d="M118.75,116.73s.08.07.12.11c-.03.02-.06.05-.09.07-.03-.04-.06-.08-.1-.12.02-.02.04-.04.06-.06Z"></path><path class="cls-6" d="M118.88,117.03s-.07-.08-.1-.11c.03-.02.06-.05.09-.07.03.03.06.05.08.08-.02.04-.05.07-.07.11Z"></path><path class="cls-6" d="M132.41,116.97s.05-.1.1-.06c.02.02,0,.09,0,.14-.04-.03-.07-.05-.11-.08Z"></path><path class="cls-6" d="M132.75,130.86s.05,0,.08,0c0,.02,0,.05-.01.07-.02-.02-.03-.05-.05-.07,0,0-.01,0-.01,0Z"></path><path class="cls-6" d="M132.71,130.69c.04.05.14.09.04.17,0,0,.01,0,.01,0-.07,0-.11-.03-.12-.1.02-.02.04-.04.07-.06Z"></path><path class="cls-6" d="M132.6,130.57s.07.08.11.12c-.02.02-.04.04-.07.06-.04-.03-.08-.07-.11-.1.02-.03.05-.06.07-.09Z"></path><path class="cls-6" d="M132.52,130.48s.05.06.08.08c-.02.03-.05.06-.07.09-.04-.03-.08-.07-.11-.1.04-.02.07-.05.11-.07Z"></path><path class="cls-6" d="M118.96,130.61s-.12.02-.14,0c-.04-.05.02-.08.06-.1.03.03.05.07.08.1Z"></path><path class="cls-6" d="M134.29,118.85s-.09.06-.14.08c-.02-.03-.05-.05-.07-.08.05-.01.1-.03.16-.04.02.02.03.03.05.04Z"></path></g><path class="cls-4" d="M136.01,242.58c.06.21-.06.38-.13.56-1.68,3.73-3.89,7.08-6.99,9.78-2.01,1.75-4.33,2.92-7.03,3.26-3.84.49-7.17-.64-10.09-3.11-1.36-1.15-2.54-2.44-3.63-3.86-3.88-5.05-5.86-10.85-6.92-17.03-.68-4-.95-8.03-.72-12.07.36-6.46,1.7-12.69,4.66-18.5.93-1.83,2.06-3.55,3.32-5.18.36-.46.74-.9,1.34-1.29-.42,1.23-.79,2.35-1.17,3.47-1.02,2.96-1.53,6.03-1.89,9.13-.38,3.23-.45,6.47-.22,9.71.5,7.19,2.15,14.05,5.94,20.28,1.54,2.52,3.4,4.75,5.77,6.54,5.07,3.81,11.13,3.69,16.06-.32.56-.46,1.13-.9,1.7-1.35h0Z"></path><path class="cls-2" d="M92.88,222.84c-.68.38-1.38.37-2.06.42-3.82.3-7.58.15-11.19-1.32-3.95-1.61-6.83-4.26-8.04-8.47-.89-3.11-.56-6.18.43-9.2,1.33-4.06,3.47-7.66,6.21-10.92,5.04-5.98,11.2-10.5,18.26-13.79,3.76-1.75,7.68-3.11,11.81-3.74,3.81-.58,7.62-.75,11.42.05.05.01.1.03.17.06-.24.3-.58.26-.87.32-5.18.97-10.05,2.77-14.67,5.3-3.88,2.13-7.5,4.62-10.78,7.62-3.93,3.6-7.18,7.68-9.41,12.53-1.22,2.64-2,5.42-1.99,8.36.02,5.36,2.57,9.14,7.27,11.56,1.07.55,2.22.91,3.44,1.22Z"></path><path class="cls-5" d="M120.6,214.24c.18.2.35.39.52.59,7.2,8.1,16.05,13.54,26.49,16.39,4.65,1.27,9.41,1.52,14.18,1.01,2.94-.31,5.68-1.33,8.13-3.03,3.88-2.68,5.58-6.41,5.29-11.09-.08-1.31-.15-2.61-.64-3.92.28.06.42.2.54.37,2.38,3.18,4.25,6.6,5.09,10.53.6,2.85.64,5.68-.52,8.4-1.43,3.36-4,5.57-7.31,6.96-3.62,1.51-7.43,1.91-11.31,1.73-7.45-.34-14.25-2.84-20.73-6.35-2.67-1.44-5.19-3.11-7.57-5.01-.25-.2-.48-.42-.7-.65-2.61-2.8-5.22-5.6-7.84-8.4-.43-.46-.73-1-1.04-1.54-.95-1.62-1.84-3.27-2.45-5.05-.1-.3-.17-.61-.25-.92.03-.01.07-.02.1-.03Z"></path><path class="cls-10" d="M136.01,242.58s.04-.04.05-.07c0,.01.02.04.01.04-.02.01-.04.02-.07.03,0,0,0,0,0,0Z"></path><path class="cls-11" d="M405.81,238.66c-3.14,0-6.21,0-9.29,0-3.44,0-6.88-.07-10.32.03-1.34.04-2.1-.4-2.83-1.51-8.39-12.59-16.83-25.14-25.26-37.7-.4-.6-.81-1.19-1.7-1.64v40.67h-21.27v-77.05c.8-.04,1.53-.1,2.27-.1,5.64,0,11.29.08,16.93-.05,1.75-.04,2.71.6,3.65,1.98,8.33,12.3,16.71,24.55,25.09,36.81.33.48.71.92,1.44,1.85v-40.43h21.31v77.13Z"></path><path class="cls-11" d="M419.35,238.66v-77.11c.62-.07,1.15-.18,1.67-.18,9.49.02,19.01-.34,28.47.18,13.95.77,25.72,6.1,33.41,18.41,4.17,6.68,5.59,14.11,5.23,21.91-.84,18.28-12.61,31.96-30.76,35.47-4.22.82-8.58,1.17-12.89,1.27-8.31.19-16.63.06-25.14.06ZM441.94,218.07c8.33.91,16.35-1,20.54-7.31,4.12-6.2,3.89-16.51-.35-22.07-4.12-5.4-13.97-8.65-20.19-6.67v36.05Z"></path><path class="cls-11" d="M609.53,238.6h-23.44c-1.49-4.45-3.02-8.86-4.41-13.31-.44-1.39-1.03-1.94-2.57-1.92-7.29.09-14.59.09-21.88,0-1.46-.02-2,.49-2.4,1.83-1.18,4.02-2.48,8-3.85,11.96-.21.6-1,1.43-1.53,1.43-7.22.09-14.45.05-21.67.03-.11,0-.23-.11-.54-.26,1.64-4.55,3.28-9.11,4.93-13.68,7.34-20.41,14.69-40.81,21.99-61.23.53-1.49,1.16-2.16,2.89-2.14,7.5.11,15,.07,22.5.03,1.15,0,1.83.23,2.28,1.46,9.08,24.89,18.21,49.76,27.32,74.63.11.31.2.63.38,1.17ZM568.07,184.15c-2.38,7.37-4.56,14.11-6.79,20.99h13.69c-2.28-6.92-4.49-13.65-6.9-20.99Z"></path><path class="cls-11" d="M321.05,238.55h-22.29v-77.08h22.29v77.08Z"></path><path class="cls-11" d="M520.58,238.61h-22.25v-77.06h22.25v77.06Z"></path></svg>