<svg xmlns="http://www.w3.org/2000/svg" width="320" height="166" viewBox="0 0 320 166">
  <g id="Thums_up" data-name="Thums up" transform="translate(5931 1613)">
    <rect id="Rectangle_466" data-name="Rectangle 466" width="320" height="166" transform="translate(-5931 -1613)" fill="#fff" opacity="0"/>
    <g id="Layer_x0020_1" transform="translate(-5847 -1603)">
      <g id="_880038912" transform="translate(0 0)">
        <path id="Path_85875" data-name="Path 85875" d="M64.73,100.952c.36-.144.168-.071.327-.043l-.1.113a20.308,20.308,0,0,1-.585,2.553c-.2.832-.408,1.675-.609,2.509-.69,2.867-1.887,7.388-2.406,10.065-.443,2.286,1.205,3.074,3.2,2.237,2.467-1.038,3.191-5.358,3.972-8.5.416-1.673.825-3.319,1.241-4.992.226-.909.95-4.324,1.25-4.931l7.361-1.144c-.229,1.254-.636,2.629-.927,3.892-.992,4.308-2.472,11.2-4.276,14.861a10.9,10.9,0,0,1-1.924,2.835,12.056,12.056,0,0,1-6,3.526c-2.532.684-5.9,1.043-8.333.073-5.246-2.1-2.376-10.192-1.336-14.332.237-.942,1.761-7.255,1.942-7.6l7.2-1.126Zm21.914-2.363h0l.161-1.02-6.811,1.066a37.517,37.517,0,0,1-.817,3.8L72.7,128.586l8.3-6.056c.5-.359.373-.37.553-1.1.309-1.244,1.742-7.257,1.944-7.611a5.465,5.465,0,0,0,1.933,1.084c2.238.7,5.412-.215,7.163-1.392a12.081,12.081,0,0,0,5.1-7.108c2.485-8.7-3.342-12.079-9.116-8.946a7.244,7.244,0,0,0-1.79,1.278c-.186-.071-.155.183-.139-.15ZM44.126,81.846h0c.229-.173.124-.114.434-.1l-.109.174L43.167,87.2l-5.031.787-4.5,17.919a60.294,60.294,0,0,1-5.36,3.647,29.783,29.783,0,0,1-2.654,1.689l5.546-22.157L24.083,90.2l3.346-5.647c.276-.3,4.107-.759,4.462-.815,1.043-.163,11.48-1.871,12.233-1.89Zm36.216-.8h0l-6.41.993c-.672,2.3-1.178,4.845-1.748,7.174a8.237,8.237,0,0,1-1.361,3.148c-.327.43-2.227,1.767-3.1.921-.541-.954,1.86-8.9,2.1-10.6-1.146.133-2.336.359-3.474.534-.57.087-1.156.183-1.727.272l-1.474.243c-.224.082-.1.028-.206.1-.527,1.961-.926,4.08-1.4,6.1-.455,1.933-1.178,4.6-.628,6.623,1.1,4.055,5.868,3.444,8.751,1.5.336-.227.842-.66,1.113-.792l-.207,1.171,6.349-1c.427-4.289,3.469-14.41,3.63-16.288l.1-.157-.31.061Zm8.486-.64h0c0,.331-.042.07.1.159a7.307,7.307,0,0,1,3.867-1.821,3.9,3.9,0,0,1,4.143,1.516,10.761,10.761,0,0,1,2.136-1.822c2.661-1.692,7.127-2.049,8.13,1.268.611,2.018-.22,4.939-.677,6.883-.5,2.123-1.008,4.237-1.494,6.408l-6.706,1.045c.329-1.654,2.558-9.712,2.141-10.721-1.225-.514-2.165.606-2.541,1.415a18.772,18.772,0,0,0-.961,3.2c-.36,1.435-1.271,5.572-1.618,6.6L88.7,95.565c.2-1.58,2.686-9.942,2.092-10.7-.247-.189-.391-.18-.807-.1a2.343,2.343,0,0,0-1.662,1.451c-.929,1.775-2.158,9.125-2.647,9.839l-6.616,1.033c.239-1.346.629-2.773.952-4.119l2.755-12.315,5.786-.882c.225-.173.123-.113.429-.1l-.105.18-.047.556Zm-48.61,22.758h0c.755-.073,6.393-.917,6.621-1.092.193-.168.185-.375.277-.778l1.537-6.339a7.285,7.285,0,0,1,1.341-3.075,2.983,2.983,0,0,1,3.139-1.068c.386,1.693-1.959,8.813-2.1,10.659l6.8-1.048L59.206,94.5c.413-1.87,1.145-4.322.812-6.331-.6-3.638-3.858-4.155-6.838-3.069a11.769,11.769,0,0,0-2.4,1.3l1.751-7.369c-1.841.211-4,.622-5.889.9-1.131.168-.859.092-1.123,1.226L41.1,99.437c-.286,1.195-.677,2.537-.882,3.725Zm74.574-16.651h0c-.478,1.1-4,1.021-5.3.914a52.375,52.375,0,0,0-3.088,4.757c5.157.639,10.43-.214,13.183-3.111,1.467-1.544,2.623-4.326,1.417-6.105-1.405-2.075-5.071-1.618-5.842-2.516.256-.693,2-.824,2.9-.858a14.513,14.513,0,0,1,3.381.422l1.69-4.938c-2.712-.343-4.62-.614-7.3.109a11.558,11.558,0,0,0-5.329,2.811,5.194,5.194,0,0,0-1.544,2.436,4.669,4.669,0,0,0,.307,3.452c1.3,2.264,4.926,1.645,5.533,2.628ZM14.5,128.006h0l-.052.269.8-.039c.948.061,7.612-.366,9.172-.446,3.077-.158,6.14-.311,9.205-.481,1.534-.085,8.091-.616,9.049-.316,2.5.783,4.907,1.51,7.313,2.388a92.24,92.24,0,0,1,15,6.653c.813.459.676.595,1.808.582,16.117-.184,31.937-2.425,47.59-5.537,1.345-.267,12.782-2.507,13.827-3.067a2.655,2.655,0,0,0,1.14-1.286c.453-1.167-.356-2.783-.744-3.743l-2.782-6.917c-1.916-4.749-1.712-3.17,1.3-4.21a2.265,2.265,0,0,0,1.681-1.521c.272-1.123-1-3.8-1.425-4.829l-2.722-6.89c-.216-.55-.886-1.83-.7-2.31.644-.274,1.541-.04,2.394-.467,2.629-1.316,1.16-3.74.3-5.88-.343-.854-3.3-7.976-3.116-8.289.984-.745,3.052-.151,3.691-1.841.532-1.408-.5-3.3-.974-4.452-1.1-2.671-2.164-5.326-3.265-7.993-1.143-2.769-1.972-5.77-5.152-6.1a28,28,0,0,0-4.957.556c-1.633.216-3.3.459-4.938.7-6.547.975-13.156,1.856-19.7,2.792-3.3.472-6.569.97-9.868,1.4-.9.118-1.854.07-1.831-.919.015-.673.724-1.439,1.035-1.869,1.636-2.257,5.966-7.736,6.9-9.9a11.368,11.368,0,0,0,.93-4.689c-.053-2.616-.86-1.9.092-3.211a11.622,11.622,0,0,0,1.585-10.137c-1.761-6.431-2.743-10.424-6.6-15.918a59.053,59.053,0,0,0-3.584-4.817c-2.521-2.426-5.332-4.611-9.893-4.142a14.7,14.7,0,0,0-7.836,3.417c-.008.558.424.921.6,1.427a15.178,15.178,0,0,0,1.445-.522c1.59-.524,3.277-.614,4.52.426a20.547,20.547,0,0,1,3.044,4.661c1.233,2.472,2.283,6.5.461,9.087A5.243,5.243,0,0,1,67.111,31.4c.361,3.134-3.1,6.813-5.118,8.827a12.968,12.968,0,0,0-2.261,2.415A20.6,20.6,0,0,0,56.5,48.683c-.769,2.438-1.2,4.375-2.817,6.535-3.913,5.223-6.7,3.86-9.931,8.687-1.32,1.97-1.689,4.5-3.2,6.151a4.281,4.281,0,0,1-3.012,1.66c-1.269.284-2.624.53-3.918.764l-6.852,1.2c-.478.094-.5.138-.6.605L21.161,97.332c-1.1,5.1-2.189,10.2-3.331,15.286-.577,2.572-1.111,5.123-1.674,7.678-.276,1.249-1.576,6.927-1.653,7.71Z" transform="translate(-1.073 -0.822)" fill="#e41d2c" fill-rule="evenodd"/>
        <path id="Path_85876" data-name="Path 85876" d="M60.007,16.871a10.984,10.984,0,0,1,2.351-.755,3.305,3.305,0,0,1,1.493.061c1.834.573,4.619,6.436,4.514,9.551a4.471,4.471,0,0,1-2.312,4.009,37.435,37.435,0,0,0-2.8-6.649l-3.249-6.217ZM14.7,127.807h0c.948.061,7.612-.366,9.172-.446,3.077-.158,6.14-.311,9.205-.481,1.534-.085,8.091-.616,9.049-.316,2.5.783,4.907,1.51,7.313,2.388a92.236,92.236,0,0,1,15,6.653c.813.459.676.595,1.808.582,16.117-.184,31.937-2.425,47.59-5.537,1.345-.267,12.782-2.507,13.827-3.067a2.655,2.655,0,0,0,1.14-1.286c.453-1.167-.356-2.783-.744-3.743l-2.782-6.917c-1.916-4.749-1.712-3.17,1.3-4.21a2.265,2.265,0,0,0,1.681-1.521c.272-1.123-1-3.8-1.425-4.829l-2.722-6.89c-.216-.55-.886-1.83-.7-2.31.644-.274,1.541-.04,2.394-.467,2.629-1.316,1.16-3.74.3-5.88-.343-.854-3.3-7.976-3.116-8.289.984-.745,3.052-.151,3.691-1.841.532-1.408-.5-3.3-.974-4.452-1.1-2.671-2.164-5.326-3.265-7.993-1.143-2.769-1.972-5.77-5.152-6.1a28,28,0,0,0-4.957.556c-1.633.216-3.3.459-4.938.7-6.547.975-13.156,1.856-19.7,2.792-3.3.472-6.569.97-9.868,1.4-.9.118-1.854.07-1.831-.919.015-.673.724-1.439,1.035-1.869,1.636-2.257,5.966-7.736,6.9-9.9a11.368,11.368,0,0,0,.93-4.689c-.053-2.616-.86-1.9.092-3.211a11.622,11.622,0,0,0,1.585-10.137c-1.761-6.431-2.743-10.424-6.6-15.918a59.054,59.054,0,0,0-3.584-4.817c-2.521-2.426-5.332-4.611-9.893-4.142a14.7,14.7,0,0,0-7.836,3.417c-.007.558.424.921.6,1.427a15.178,15.178,0,0,0,1.445-.522c1.59-.524,3.277-.614,4.52.426a20.547,20.547,0,0,1,3.044,4.661c1.233,2.472,2.283,6.5.461,9.087a5.243,5.243,0,0,1-2.121,1.773c.361,3.134-3.1,6.813-5.118,8.827a12.968,12.968,0,0,0-2.261,2.415,20.6,20.6,0,0,0-3.228,6.038c-.769,2.438-1.2,4.375-2.817,6.535-3.913,5.223-6.7,3.86-9.931,8.687-1.32,1.97-1.689,4.5-3.2,6.151A4.281,4.281,0,0,1,37,71.289c-1.269.284-2.624.53-3.918.764l-6.852,1.2c-.478.094-.5.138-.6.605L20.614,96.9c-1.1,5.1-2.189,10.2-3.331,15.286-.577,2.572-1.111,5.123-1.674,7.678-.276,1.249-1.576,6.927-1.653,7.71-.2.224-.1.044-.127.359l.875-.13ZM86.565,59.744h0l-.269.112c.006-.434-.026-.094.121-.23a14.892,14.892,0,0,0,1.793-2.76c2.608-4.941,1.714-8.727,1.895-9.36.308-1.076,2.412-3.506,2.2-9.141a34.164,34.164,0,0,0-1.568-7.513A44.065,44.065,0,0,0,85.211,18.11c-2.378-3.678-4.791-7.157-8.391-9.793-6.208-4.544-14.207-3.693-20.443.872-.264.193-.408.353-.659.551L54,11.4c-.311.383-1.7,2.111-1.478,2.937.082.307,7.322,11.933,8.586,16.434.264.939.2.887-.263,1.588a25.76,25.76,0,0,1-4.291,4.8,24.024,24.024,0,0,0-2.051,2.539,27.782,27.782,0,0,0-1.768,2.822c-1.664,2.965-1.549,3.873-2.531,6.561A9.435,9.435,0,0,1,46.23,54.2a18.393,18.393,0,0,0-8.942,9.243c-.639,1.621-.654,2.583-1.795,2.795l-7.685,1.41c-2.582.464-4.76.5-6.345,2.743a7.848,7.848,0,0,0-1.177,3.324c-3.366,14.875-6.6,29.82-9.92,44.724-.55,2.469-1.085,4.959-1.652,7.443-.545,2.389-1.238,5.079-1.647,7.486,5.983-.234,12.063-.689,18.047-1.037.847-.049,15.377-.672,16.1-.527.492.1,1.291.382,1.8.549,6.648,2.173,14.123,4.93,19.977,8.514a2.294,2.294,0,0,0,1.875.589c.78,0,1.558,0,2.338-.008,12.819-.119,26.373-1.878,38.731-3.991,5.365-.917,10.643-1.963,15.9-3.063,2.612-.547,5.182-1.15,7.787-1.736,1.286-.289,2.586-.589,3.875-.887a35.612,35.612,0,0,0,3.8-.931l-6.51-15.688,5.039-2.028-5.772-14.25c.367-.137,4.2-2.518,4.413-2.745-.6-1.776-2.655-6.609-3.5-8.692-1.446-3.56-1.581-3.071-.566-4.05l3.122-2.93c-.108-.551-5.12-12.806-5.446-13.6-2.079-5.041-3.229-9.142-8.183-10.781-2.775-.918-5.58-.243-8.418.17L94.88,58.6c-1.375.2-7.482,1.138-8.314,1.148Z" transform="translate(-0.525 -0.394)" fill="#fefefe" fill-rule="evenodd"/>
        <path id="Path_85877" data-name="Path 85877" d="M85.892,59.233c.068.157-.17.111.148.117.832-.009,6.939-.951,8.315-1.148l16.594-2.349c2.838-.412,5.644-1.087,8.418-.17,4.954,1.638,6.1,5.739,8.183,10.781.326.79,5.338,13.045,5.446,13.6l-3.122,2.93c-1.015.979-.879.49.566,4.05.846,2.083,2.9,6.915,3.5,8.692-.214.228-4.046,2.608-4.413,2.745l5.772,14.25-5.039,2.028,6.51,15.688a35.668,35.668,0,0,1-3.8.931c-1.289.3-2.589.6-3.875.887-2.606.586-5.176,1.19-7.787,1.736-5.257,1.1-10.535,2.146-15.9,3.063-12.358,2.113-25.912,3.872-38.731,3.991-.78.007-1.558,0-2.338.008a2.3,2.3,0,0,1-1.875-.589c-5.854-3.585-13.329-6.341-19.977-8.514-.508-.166-1.307-.449-1.8-.549-.718-.145-15.249.478-16.1.527-5.984.349-12.064.8-18.047,1.037.409-2.407,1.1-5.1,1.647-7.486.567-2.484,1.1-4.974,1.652-7.443,3.321-14.9,6.554-29.849,9.92-44.724A7.849,7.849,0,0,1,20.939,70c1.585-2.242,3.764-2.279,6.345-2.743l7.685-1.41c1.141-.212,1.156-1.174,1.795-2.795a18.392,18.392,0,0,1,8.942-9.243,9.435,9.435,0,0,0,3.98-5.113c.982-2.688.867-3.6,2.531-6.561a27.8,27.8,0,0,1,1.768-2.822,24,24,0,0,1,2.051-2.539,25.763,25.763,0,0,0,4.291-4.8c.465-.7.527-.649.263-1.588-1.264-4.5-8.5-16.127-8.586-16.434-.222-.826,1.167-2.554,1.478-2.937l1.713-1.664c.252-.2.4-.358.659-.551C62.088,4.23,70.087,3.378,76.3,7.923c3.6,2.636,6.013,6.115,8.391,9.793A44.065,44.065,0,0,1,90.214,30.46a34.171,34.171,0,0,1,1.568,7.513c.21,5.635-1.894,8.065-2.2,9.141-.181.632.713,4.419-1.895,9.36a14.9,14.9,0,0,1-1.793,2.76ZM47.106,13.644h0a4.492,4.492,0,0,0,.318,2.194L49.1,18.662C50.137,20.39,55.246,29,55.246,30.443c0,.321-.887,1.159-1.1,1.406-.5.564-1.549,1.434-2.51,2.512-.4.453-.793.976-1.148,1.45a34.845,34.845,0,0,0-2.041,3.068l-1.311,2.5c-.143.335-.279.533-.422.877a25.061,25.061,0,0,0-1.3,3.723,6.409,6.409,0,0,1-1.776,3.333l-3.2,1.914a21.615,21.615,0,0,0-5.233,4.9,26.134,26.134,0,0,0-2.013,3.1c-1.365,2.458-.294,2.082-2.637,2.472-1.456.242-2.926.53-4.343.766-3.3.55-4.935.8-7.46,2.758A10.766,10.766,0,0,0,15.618,69.7a15.265,15.265,0,0,0-.543,2.055c-.834,4.151-1.913,8.283-2.816,12.425-.152.7-.312,1.4-.465,2.046-.17.718-.3,1.382-.485,2.112L1.42,131.877C1.188,132.9.071,137.319,0,138.164c2.967,0,5.82-.4,8.749-.43l2.112-.14a8.4,8.4,0,0,1,1.092-.034l4.415-.261c.533,0,.668-.078,1.121-.091.813-.023,1.366-.072,2.171-.08l19.922-.869a21.75,21.75,0,0,1,3.531,1.05,100.836,100.836,0,0,1,13.173,5.358,46.617,46.617,0,0,1,4.433,2.494,5.522,5.522,0,0,0,1.542.8c1.395,0,6.506.124,7.657-.05l9.141-.471c.329-.016.886-.055,1.288-.1.746-.08,1.769-.2,2.527-.244,3.5-.194,11.133-1.237,14.767-1.772,6.41-.944,12.546-2.04,18.865-3.216l6.825-1.4c6.067-1.3,11.965-2.656,17.938-4.143a17.738,17.738,0,0,1,2.217-.554c-.053-.636-4.661-11.314-5.1-12.4-.284-.706-.592-1.4-.866-2.078-.146-.363-.3-.7-.433-1.039s-.295-.74-.446-1.026c1.164-.616,2.52-1.049,3.735-1.547.427-.175.909-.331,1.287-.531L135.6,100.5l2.2-1.35c.382-.251.7-.417,1.074-.658.4-.261.72-.452,1.143-.676-.077-.92-5.039-12.056-5.109-12.9.37-.1.705-.575.974-.844a18.32,18.32,0,0,1,1.438-1.42c.509-.406.947-1.013,1.485-1.373-.18-.339-.322-.761-.483-1.163l-7.187-17.838a30.441,30.441,0,0,0-2.131-4.537,17.444,17.444,0,0,0-2.083-2.853l-1.278-1.233a14.4,14.4,0,0,0-11.986-3.067c-.986.139-1.928.239-2.836.368-1.905.27-3.806.5-5.64.768l-9.709,1.374c-.488.072-1.006.175-1.435.211.024-.283.116-.609.162-.877.058-.339.1-.615.149-.977.231-1.675-.141-2.466.471-3.859a24.786,24.786,0,0,0,1.793-6.866l.11-2.055a22.21,22.21,0,0,0-.744-5.577c-1.851-7.357-4.548-14.776-9.1-20.858a30.545,30.545,0,0,0-2.817-3.59c-.236-.232-.274-.333-.477-.563a26.254,26.254,0,0,0-3.967-3.566A23.324,23.324,0,0,0,74.161,1.4a20.078,20.078,0,0,0-15.735.446c-.515.223-.932.447-1.423.655A20.921,20.921,0,0,0,54.257,4a13.292,13.292,0,0,0-2.411,1.746,22.721,22.721,0,0,0-2.106,2.137c-1.167,1.484-2.634,3.685-2.634,5.765Z" transform="translate(0 0)" fill="#2b3064" fill-rule="evenodd"/>
        <path id="Path_85878" data-name="Path 85878" d="M93.319,109.433c1.113-.278,1.8-.032,2.053.96.583,2.3-.839,5.4-3.346,6.015-2.328.567-2.553-2.077-1.891-3.79a4.854,4.854,0,0,1,3.184-3.185Zm-1.867-3.86h0c-.144.145.159.105-.163.145-.093-.147-.215-.033.024-.3l.161-1.02-6.811,1.066a37.515,37.515,0,0,1-.817,3.8L77.366,135.42l8.3-6.056c.5-.359.373-.37.553-1.1.309-1.244,1.742-7.257,1.944-7.611a5.465,5.465,0,0,0,1.933,1.084c2.238.7,5.412-.215,7.163-1.392a12.081,12.081,0,0,0,5.1-7.108c2.485-8.7-3.342-12.079-9.116-8.945a7.243,7.243,0,0,0-1.79,1.278Z" transform="translate(-5.742 -7.656)" fill="#fefefe" fill-rule="evenodd"/>
        <path id="Path_85879" data-name="Path 85879" d="M68.12,108.057l-.23-.071-7.2,1.126c-.181.342-1.705,6.655-1.942,7.6-1.04,4.14-3.91,12.236,1.336,14.332,2.429.97,5.8.611,8.333-.073a12.055,12.055,0,0,0,6-3.526,10.894,10.894,0,0,0,1.924-2.835c1.8-3.665,3.284-10.553,4.276-14.861.291-1.262.7-2.638.927-3.892L74.179,107c-.3.608-1.024,4.023-1.25,4.931-.416,1.672-.826,3.319-1.241,4.992-.781,3.141-1.505,7.461-3.972,8.5-1.991.838-3.639.049-3.2-2.237.519-2.676,1.716-7.2,2.406-10.065.2-.833.409-1.677.609-2.509a20.311,20.311,0,0,0,.585-2.553Z" transform="translate(-4.233 -7.857)" fill="#fefefe" fill-rule="evenodd"/>
        <path id="Path_85880" data-name="Path 85880" d="M94.107,85.863c-.09.093.1.064-.234.157.04-.324-.041-.157.134-.316l.047-.556c-.115-.2.128-.12-.324-.079l-5.786.882L85.189,98.266c-.323,1.346-.712,2.773-.952,4.118l6.616-1.033c.489-.714,1.718-8.064,2.647-9.839a2.343,2.343,0,0,1,1.662-1.451c.416-.079.56-.088.807.1.594.76-1.9,9.122-2.092,10.7l6.649-1.03c.347-1.03,1.258-5.167,1.618-6.6a18.767,18.767,0,0,1,.961-3.2c.376-.808,1.316-1.929,2.541-1.415.418,1.009-1.812,9.067-2.141,10.721l6.706-1.045c.486-2.171.994-4.286,1.494-6.408.458-1.943,1.288-4.864.677-6.883-1-3.317-5.47-2.96-8.13-1.268a10.758,10.758,0,0,0-2.136,1.822,3.9,3.9,0,0,0-4.143-1.516,7.307,7.307,0,0,0-3.867,1.821Z" transform="translate(-6.253 -6.121)" fill="#fefefe" fill-rule="evenodd"/>
        <path id="Path_85881" data-name="Path 85881" d="M42.283,108.611c.755-.073,6.393-.917,6.621-1.092.193-.168.185-.375.277-.778l1.537-6.339a7.285,7.285,0,0,1,1.341-3.075A2.983,2.983,0,0,1,55.2,96.258c.386,1.693-1.959,8.813-2.1,10.659l6.8-1.048,1.369-5.916c.413-1.87,1.145-4.322.812-6.331-.6-3.638-3.858-4.155-6.838-3.069a11.769,11.769,0,0,0-2.4,1.3L54.6,84.486c-1.841.211-4,.622-5.889.9-1.131.168-.859.092-1.123,1.226l-4.419,18.269c-.286,1.195-.677,2.537-.882,3.725Z" transform="translate(-3.139 -6.271)" fill="#fefefe" fill-rule="evenodd"/>
        <path id="Path_85882" data-name="Path 85882" d="M45.223,87.589c-.112-.188.114-.113-.325-.073-.754.019-11.19,1.727-12.233,1.89-.355.056-4.186.51-4.462.815l-3.346,5.647,7.082-1.11-5.546,22.157a29.805,29.805,0,0,0,2.654-1.689,60.268,60.268,0,0,0,5.36-3.647l4.5-17.919,5.031-.787,1.283-5.284Z" transform="translate(-1.845 -6.492)" fill="#fefefe" fill-rule="evenodd"/>
        <path id="Path_85883" data-name="Path 85883" d="M84.264,86.748c-.076-.133.092-.1-.213-.1l-6.41.993c-.672,2.3-1.178,4.845-1.748,7.174a8.237,8.237,0,0,1-1.361,3.148c-.327.43-2.227,1.767-3.1.921-.541-.954,1.86-8.9,2.1-10.6-1.146.133-2.336.359-3.474.534-.57.087-1.156.183-1.727.272l-1.474.243c-.224.082-.1.028-.206.1-.527,1.961-.926,4.08-1.4,6.1-.455,1.933-1.178,4.6-.628,6.623,1.1,4.055,5.868,3.444,8.751,1.5.336-.227.842-.66,1.113-.792l-.207,1.171,6.349-1c.427-4.289,3.469-14.41,3.63-16.288Z" transform="translate(-4.782 -6.431)" fill="#fefefe" fill-rule="evenodd"/>
        <path id="Path_85884" data-name="Path 85884" d="M122.163,91.614c-.478,1.1-4,1.021-5.3.914a52.374,52.374,0,0,0-3.088,4.757c5.157.639,10.43-.214,13.183-3.111,1.467-1.544,2.623-4.326,1.417-6.105-1.405-2.075-5.071-1.618-5.842-2.516.256-.693,2-.824,2.9-.858a14.513,14.513,0,0,1,3.381.422l1.69-4.938c-2.712-.343-4.62-.614-7.3.109a11.558,11.558,0,0,0-5.329,2.811,5.194,5.194,0,0,0-1.544,2.436,4.669,4.669,0,0,0,.307,3.452c1.3,2.264,4.926,1.645,5.533,2.628Z" transform="translate(-8.445 -5.925)" fill="#fefefe" fill-rule="evenodd"/>
        <path id="Path_85885" data-name="Path 85885" d="M64.251,17.734,67.5,23.951A37.442,37.442,0,0,1,70.3,30.6a4.471,4.471,0,0,0,2.312-4.009c.1-3.115-2.68-8.977-4.514-9.551a3.305,3.305,0,0,0-1.493-.061,10.984,10.984,0,0,0-2.351.755Z" transform="translate(-4.769 -1.256)" fill="#e41d2c" fill-rule="evenodd"/>
        <path id="Path_85886" data-name="Path 85886" d="M94.317,109.928a4.854,4.854,0,0,0-3.184,3.185c-.662,1.713-.437,4.357,1.891,3.79,2.507-.611,3.929-3.715,3.346-6.015-.251-.991-.94-1.238-2.053-.96Z" transform="translate(-6.74 -8.151)" fill="#e41d2c" fill-rule="evenodd"/>
        <path id="Path_85887" data-name="Path 85887" d="M156.615,140.805a3,3,0,0,1,2.858-2.944,2.8,2.8,0,0,1,1.929.582c3.311,2.741-1.024,7.283-3.9,4.42a3.1,3.1,0,0,1-.886-2.058Zm-.693-.346h0a3.449,3.449,0,0,0,1.145,3.011,3.683,3.683,0,0,0,6.215-2.4,3.4,3.4,0,0,0-1.146-2.923,3.661,3.661,0,0,0-6.214,2.317Z" transform="translate(-11.573 -10.174)" fill="#2b3064" fill-rule="evenodd"/>
        <path id="Path_85888" data-name="Path 85888" d="M159.726,140.681h-.693c0-1.329-.2-1.126,1.039-1.126.474,0,.917.188.823.646s-.644.48-1.169.48Zm-1.472-.433h0v2.771h.779v-1.732c1,0,.671-.2,1.645,1.645h.953c-.292-.552-.657-1.086-.953-1.645,1-.233,1.039-.532,1.039-1.3,0-1.376-2.126-1.039-3.55-1.039,0,.549.087.723.087,1.3Z" transform="translate(-11.74 -10.31)" fill="#2b3064" fill-rule="evenodd"/>
        <path id="Path_85889" data-name="Path 85889" d="M15.246,137.611l-.8.039.052-.269c-.2.224-.1.044-.127.359l.875-.13Z" transform="translate(-1.067 -10.197)" fill="#f299a2" fill-rule="evenodd"/>
        <path id="Path_85890" data-name="Path 85890" d="M94.88,86.121c-.142-.089-.1.172-.1-.159-.175.159-.094-.008-.134.316C94.978,86.186,94.79,86.215,94.88,86.121Z" transform="translate(-7.025 -6.38)" fill="#ed727c" fill-rule="evenodd"/>
        <path id="Path_85891" data-name="Path 85891" d="M92.56,105.756c-.186-.071-.155.183-.139-.15-.239.262-.117.148-.024.3.322-.04.019,0,.163-.145Z" transform="translate(-6.85 -7.838)" fill="#f299a2" fill-rule="evenodd"/>
        <path id="Path_85892" data-name="Path 85892" d="M94.815,85.346l.105-.18c-.306-.012-.2-.072-.429.1.452-.041.209-.117.324.079Z" transform="translate(-7.014 -6.32)" fill="#ef828d" fill-rule="evenodd"/>
        <path id="Path_85893" data-name="Path 85893" d="M46.83,87.584l.109-.174c-.31-.013-.205-.072-.434.1.438-.04.213-.115.325.073Z" transform="translate(-3.452 -6.486)" fill="#ef828d" fill-rule="evenodd"/>
        <path id="Path_85894" data-name="Path 85894" d="M92.917,64.1c-.318-.007-.081.04-.148-.117-.147.136-.115-.2-.121.23l.269-.112Z" transform="translate(-6.877 -4.749)" fill="#a2a6be" fill-rule="evenodd"/>
        <path id="Path_85895" data-name="Path 85895" d="M68.991,108.221l.1-.113c-.16-.028.033-.1-.327.043l.23.071Z" transform="translate(-5.104 -8.021)" fill="#ef828d" fill-rule="evenodd"/>
        <path id="Path_85896" data-name="Path 85896" d="M85.837,86.744l.1-.157-.31.061C85.929,86.639,85.761,86.611,85.837,86.744Z" transform="translate(-6.355 -6.427)" fill="#f299a2" fill-rule="evenodd"/>
      </g>
    </g>
  </g>
</svg>
